<svg id="Layer_3" data-name="Layer 3" xmlns="http://www.w3.org/2000/svg" viewBox="0 0 205.56 72.97"><defs><clipPath id="clip-path"><path fill="none" d="M.28.48h205.07v72.01H.28z"/></clipPath><style>.cls-2{clip-path:url(#clip-path)}.cls-6{fill:#00304b}</style></defs><g class="cls-2" id="AC_logo_colour" data-name="AC logo colour"><g class="cls-2"><path d="M174.77 55.82V36.46a4.33 4.33 0 01-3.71-4.29v-.36a.86.86 0 00-.12-.5 2.15 2.15 0 00-.81-.53l-14.26-5.47-.54-.25a3.24 3.24 0 00-1.33-.31 1.59 1.59 0 00-1 .38 4.32 4.32 0 11-.38-6.1 4.36 4.36 0 011.46 3.27 1.6 1.6 0 00.46 1 3.56 3.56 0 001.21.66l.58.18 14.09 5.41.17.07a2.25 2.25 0 001 .14h.11a2 2 0 00-.54-.86l-11-10.61-.45-.43a3.34 3.34 0 00-1.1-.81 1.56 1.56 0 00-1 0 4.32 4.32 0 112.1-2.19 1.55 1.55 0 000 1.06 3.45 3.45 0 00.86 1.08l.44.42 10.9 10.48.09.1a2.29 2.29 0 00.82.5h.18a2.11 2.11 0 00-.16-1l-6-14.06-.24-.57a3.23 3.23 0 00-.7-1.17 1.57 1.57 0 00-.95-.43 4.32 4.32 0 112.79-1.2 1.53 1.53 0 00-.37 1 3.47 3.47 0 00.36 1.33l.23.56 5.9 13.89.07.17a2.13 2.13 0 00.56.78l.1.05a2.2 2.2 0 00.24-1V11a3.43 3.43 0 00-.19-1.35 1.59 1.59 0 00-.71-.76 4.31 4.31 0 113 0 1.52 1.52 0 00-.73.77A3.19 3.19 0 00176 11v15.86a2.08 2.08 0 00.21.94.15.15 0 00.13 0 2.39 2.39 0 00.56-.78l.07-.17L182.86 13l.24-.56a3.67 3.67 0 00.37-1.33 1.64 1.64 0 00-.37-1 4.32 4.32 0 116.11-.13 4.37 4.37 0 01-3.32 1.33 1.55 1.55 0 00-1 .43 3.23 3.23 0 00-.7 1.17l-.24.57-5.92 14a2 2 0 00-.18.95.15.15 0 00.13 0 2.29 2.29 0 00.82-.5l.13-.13 10.85-10.5.43-.42a3.57 3.57 0 00.85-1.08 1.68 1.68 0 00.05-1.06 4.31 4.31 0 112.1 2.19 1.56 1.56 0 00-1 0 3.15 3.15 0 00-1.1.81l-.45.43-11 10.61a2 2 0 00-.53.8.13.13 0 00.1.09 2.27 2.27 0 001-.14l.17-.07 14.08-5.41.56-.22a3.58 3.58 0 001.21-.66 1.66 1.66 0 00.46-1 4.32 4.32 0 111.08 2.83 1.61 1.61 0 00-1-.38 3.2 3.2 0 00-1.33.31l-.58.22-14.26 5.61a2 2 0 00-.81.53 1 1 0 00-.12.59v.27a4.34 4.34 0 01-3.69 4.31v19.36z" fill="#e63739"/><path d="M177.41 43.22c8.5-4.06 17.5-7.81 26.82-9.46 1.51 4-3.25 6.77-6.2 8.23-6.15 2.69-14.22 3.72-20.62 1.22m-3.78-.87c-8.41-4.1-17.41-7.83-26.7-9.27 2.66-3.52 7.9-3.26 11.76-2.5a23 23 0 0114.94 11.77m-.26.87c-6.4 2.5-14.46 1.46-20.62-1.22-2.95-1.47-7.71-4.25-6.2-8.23 9.32 1.65 18.32 5.4 26.82 9.46m3.78-.87a23 23 0 0114.94-11.77c3.86-.76 9.1-1 11.76 2.5-9.29 1.44-18.29 5.16-26.7 9.27" fill="#6e963c"/><path d="M205.33 65.75a19.41 19.41 0 01-6.93 1.38 19.08 19.08 0 01-11.5-4 18.46 18.46 0 01-23 0 18.34 18.34 0 01-18.43 2.66v-3.27a17.4 17.4 0 006.86 1.48 18 18 0 0011.54-4.4 17.29 17.29 0 0023 0 17 17 0 0018.46 2.86v3.29zm0 5.32a19.64 19.64 0 01-6.93 1.39 19.08 19.08 0 01-11.5-4 18.46 18.46 0 01-23 0 18.34 18.34 0 01-18.43 2.66v-3.28a17.23 17.23 0 006.86 1.48 18 18 0 0011.54-4.4 17.29 17.29 0 0023 0 17.75 17.75 0 0011.5 4.4 17.41 17.41 0 007-1.49v3.25zm-20.47-15.54a9.5 9.5 0 002-2.42 9.3 9.3 0 002 2.42 15.33 15.33 0 009.45 3.47 16 16 0 007-1.72v3.33A19 19 0 01198.4 62a18.44 18.44 0 01-11.5-4.21 17.87 17.87 0 01-23 0 17.75 17.75 0 01-18.43 2.79v-3.34a15.72 15.72 0 006.86 1.76 15.5 15.5 0 009.5-3.43 9.71 9.71 0 002-2.42 9.3 9.3 0 002 2.42 14.84 14.84 0 0018.95 0" fill="#007cb9"/><path class="cls-6" d="M93.43 42.76v12.35a9.19 9.19 0 00.57 3.53 11.16 11.16 0 01-2.83-.12c-1-.18-1.9-.59-1.9-1.42v-.64a5.92 5.92 0 01-4.94 2.59c-4.64 0-5.8-2.61-5.8-6.54v-9.75h4.36v9c0 2.6.77 3.89 2.79 3.89 2.36 0 3.38-1.31 3.38-4.55v-8.34zM95 58.63V42.76h4.1V45a5.91 5.91 0 014.9-2.68c4.64 0 5.8 2.61 5.8 6.54v7.7a2.56 2.56 0 00.56 2.08 12.73 12.73 0 01-2.31 0c-1.28-.12-2.62-.5-2.62-1.51v-7.48c0-2.6-.77-3.89-2.79-3.89-2.37 0-3.38 1.31-3.38 4.54v8.31H95zm38.37-1.36V35.82c.27.51 1.6.71 2.75.8a14.25 14.25 0 001.61 0v18.49a8.16 8.16 0 00.55 3.53 12.62 12.62 0 01-2.3 0 1.65 1.65 0 01-.66-.09h-.59l-.2-.06-.16-.21a1.4 1.4 0 01-1-1m-1.62-17h-4.38V36.7h4.36v3.6zm-4.38 2.48h4.36v15.87h-4.36zm-1 5.59h-4.27a3 3 0 00-3.22-2.74c-2.8 0-3.72 2.82-3.72 5.16s.89 5 3.62 5a3.35 3.35 0 003.47-3.22h4.21c-.55 4.21-3.47 6.51-7.65 6.51-4.79 0-8-3.38-8-8.13 0-5 3-8.61 8.11-8.61 3.74 0 7.18 2 7.46 6m-60.8 2.39c0 2.51.89 5.06 3.84 5.06s3.91-2.55 3.91-5.06-.89-5.11-3.87-5.11-3.84 2.55-3.84 5.11m-4.36 0c0-5.07 3.22-8.39 8.2-8.39s8.23 3.32 8.23 8.39-3.23 8.34-8.23 8.34-8.2-3.32-8.2-8.34m-1-6.64h-4.74a4.75 4.75 0 00-4.79-3.84c-4.33 0-6 3.69-6 7.53 0 3.64 1.63 7.34 6 7.34 3 0 4.61-2 5-4.92h4.6c-.49 5.46-4.27 9-9.64 9-6.78 0-10.78-5.07-10.78-11.38 0-6.52 4-11.59 10.78-11.59 4.82 0 8.88 2.82 9.46 7.89m-.59-13.64c-2.73 0-3.62-2.73-3.62-5s.92-5.16 3.72-5.16a3 3 0 013.22 2.7h4.27c-.28-4.05-3.71-6-7.46-6-5.16 0-8.11 3.65-8.11 8.6 0 4.76 3.22 8.14 8 8.14 4.17 0 7.09-2.3 7.65-6.51H63a3.36 3.36 0 01-3.47 3.2m23.64-12.97H78l-5.5 5.71V11.46h-4.34v21.89h4.36v-5.46l1.69-1.63 3.12 5.14s1 2 4.52 2h2l-6.66-10zm-32.48 0h-4.36v8.32c0 3.22-1 4.54-3.38 4.54-2 0-2.79-1.29-2.79-3.9v-9H35.8v9.76c0 3.93 1.17 6.54 5.8 6.54a5.94 5.94 0 004.94-2.64v.69c0 .83.88 1.23 1.9 1.42a12.16 12.16 0 002.83.12 9.26 9.26 0 01-.58-3.53zm87.01 12.37V11.45h-4.37l-.06 8a5.49 5.49 0 00-4.7-2.37c-4.67 0-7 4-7 8.23s2.33 8.51 7.12 8.51a5.57 5.57 0 004.67-2.1v.14a.38.38 0 000 .15c.13 1 1.55 1.29 2.83 1.39a12 12 0 002.08 0 8.06 8.06 0 01-.57-3.57m-8 .67c-2.7 0-3.84-2.61-3.84-5.1s1-5.06 3.84-5.06 3.75 2.46 3.75 5-.82 5.16-3.71 5.16zm-8.93-.5v-6.41c0-3.93-1.17-6.54-5.8-6.54a5.88 5.88 0 00-4.97 2.64v-2.23h-4.14v15.89h4.36V25c0-3.22 1-4.54 3.38-4.54 2 0 2.8 1.29 2.8 3.9v7.45c0 1 1.34 1.39 2.62 1.52a14.84 14.84 0 002.31 0 2.6 2.6 0 01-.56-2.09V30zm-16.33-8.44c0-3.8-3.81-4.51-7-4.51-3.56 0-7.21 1.23-7.46 5.31h4.35c.15-1.72 1.23-2.4 2.89-2.4s2.82.28 2.82 2.15-2.49 1.69-5.16 2.09-5.4 1.23-5.4 4.82c0 3.25 2.4 4.76 5.4 4.76a7.34 7.34 0 005.34-2c0 2 4.73 1.54 4.73 1.54a8.21 8.21 0 01-.55-3.53v-8.23zm-4.36 5.65c0 1-.12 3.65-3.53 3.65-1.41 0-2.67-.4-2.67-2s1.23-2.06 2.58-2.33 2.88-.28 3.62-.92v1.6zM88.69 11.46h-4.36V32a1.31 1.31 0 00.86 1h.14l.17.07.2.06h.58c.21 0 .43.07.66.09a14.72 14.72 0 002.3 0 8.21 8.21 0 01-.55-3.53zM29.14 71.14v-5.23H30v.79a1.93 1.93 0 011.7-.92 1.56 1.56 0 011.73 1.35 5.54 5.54 0 01.06 1v2.14a3.45 3.45 0 00.08.85h-.21a.66.66 0 01-.72-.6v-2.43a5.47 5.47 0 000-.81 1 1 0 00-1.06-.73 1.46 1.46 0 00-1.17.61 1.7 1.7 0 00-.41 1.08v2.91h-.88zM9.33 69.46A2.42 2.42 0 017 71.31a2.76 2.76 0 010-5.5 2.28 2.28 0 012.28 1.84 5.46 5.46 0 01.1 1.07h-4a1.72 1.72 0 001.52 1.93h.18a1.37 1.37 0 001.37-1.22zm-1-1.39A1.5 1.5 0 007 66.46h-.09A1.53 1.53 0 005.43 68h3zm7-.46l-1 1v2.5h-1V64h1v3.5l3.4-3.5h1.18L16 67zm.66-.68l2.67 4.21h-.17a2 2 0 01-1.25-.4l-1.91-3.13m32.37-1.73v1a1.88 1.88 0 011.81-1v1h-.37a1.34 1.34 0 00-1.22.61 2.46 2.46 0 00-.22 1.33v2.44h-.89v-5.38zm34.87 4.42v-2.4a3.14 3.14 0 00-.14-1.18 1.55 1.55 0 00-1.41-.9 2.39 2.39 0 00-1.72 1 1.52 1.52 0 00-1.4-1 2 2 0 00-1.54.85V66h-.87v4.55a.57.57 0 00.53.61h.37a5.61 5.61 0 010-.82v-2.27a1.18 1.18 0 01.34-1 1.51 1.51 0 011-.37.91.91 0 01.76.34 1.42 1.42 0 01.2.83v2.75a.55.55 0 00.53.57.43.43 0 00.16 0h.21a5.61 5.61 0 010-.82v-2.3a1.17 1.17 0 01.31-1 1.44 1.44 0 011-.44.88.88 0 01.9.64 3.75 3.75 0 010 .82v2.43a.57.57 0 00.53.61.44.44 0 00.16 0h.21a5.69 5.69 0 01-.13-.81M105 70.3V64h-1.23l-2.22 5.64L99.33 64h-1.22v6.56a.58.58 0 00.58.6h.41a3.82 3.82 0 01-.06-.83v-5.14l2 5.27a.87.87 0 00.83.67h.13l.31-.81 2-5.22-.06 3v2.47a.63.63 0 00.66.59h.33a4.79 4.79 0 01-.2-.81m-82.98-.61a1.28 1.28 0 01-1.28.75 1 1 0 01-1.07-.67c-.15-.65.34-.86.92-1a4.58 4.58 0 001.57-.42 3.37 3.37 0 01-.14 1.34m1 .4a3.14 3.14 0 010-.75V68a6 6 0 000-1c-.23-1-1.17-1.28-2.15-1.24A1.65 1.65 0 0019 67.24a1.82 1.82 0 000 .33h.84a1 1 0 011-1h.18a1 1 0 011.18.63c.15.69-.23.76-1.09.87-1.1.16-2.53.33-2.19 1.83a1.7 1.7 0 001.88 1.38 1.68 1.68 0 001.52-.82.73.73 0 00.75.7h.07c.56 0 .47-.78.47-.78a1 1 0 01-.29.08.31.31 0 01-.32-.3m5.19-4.28v4.44a3.42 3.42 0 00.09.79h-.23a.69.69 0 01-.73-.65.71.71 0 010-.14 1.83 1.83 0 01-1.66.92A1.52 1.52 0 0124 69.92a5.54 5.54 0 01-.06-1v-3h.84V69a5.34 5.34 0 000 .8 1 1 0 001 .72 1.57 1.57 0 001.59-1.58v-3h.86zm6.23-1.92L34.41 65h.87v-1.04h-.86zm-.01 7.17v-5.19h.86l-.01 5.19h-.85zM53 69.74a1.28 1.28 0 01-1.28.75 1 1 0 01-1.07-.67c-.15-.65.34-.86.92-1a4.58 4.58 0 001.57-.42 3.37 3.37 0 01-.14 1.34m1 .4a3.14 3.14 0 010-.75V68a6 6 0 00-.05-1c-.23-1-1.17-1.28-2.15-1.24a1.65 1.65 0 00-1.83 1.46 1.82 1.82 0 000 .33h.84a1 1 0 011-1h.18a1 1 0 011.18.63c.15.69-.23.76-1.09.87-1.1.16-2.53.33-2.19 1.83a1.7 1.7 0 001.88 1.38 1.67 1.67 0 001.5-.82.73.73 0 00.75.7H54c.56 0 .47-.78.47-.78a.81.81 0 01-.25.08.31.31 0 01-.32-.3m6.87 1.2A2.47 2.47 0 0158.21 69a1.69 1.69 0 010-.32 2.54 2.54 0 012.27-2.78h.31a2.48 2.48 0 012.54 2.4v.35a2.5 2.5 0 01-2.26 2.73h-.3m1.56-3.48a1.43 1.43 0 00-1.46-1.31c-1.17 0-1.65.91-1.65 2.09s.45 2 1.58 2c1.46 0 1.57-1.51 1.58-2a3.41 3.41 0 00-.05-.78m11.14-3.33a.72.72 0 01-.46.64h-1.24c-.43 0-.25-.64-.25-.64h2zm-.05 5.17a1.28 1.28 0 01-1.28.75 1 1 0 01-1.07-.67c-.15-.65.34-.86.92-1a4.58 4.58 0 001.57-.42 3.37 3.37 0 01-.14 1.34m1 .4a3.14 3.14 0 010-.75V68a5 5 0 00-.09-1c-.23-1-1.17-1.28-2.15-1.24a1.66 1.66 0 00-1.85 1.44 2 2 0 000 .35h.84a1 1 0 011-1h.18a1 1 0 011.18.64c.15.69-.23.76-1.09.88-1.1.15-2.53.32-2.19 1.82a1.68 1.68 0 001.88 1.37 1.66 1.66 0 001.56-.82.73.73 0 00.75.7h.07c.56 0 .47-.78.47-.78a.73.73 0 01-.25.08.31.31 0 01-.32-.3m18.97-6.18L93.37 65h.86l.01-1.04h-.86zm-.02 7.17l.01-5.19h.85l-.01 5.19h-.85zm-6.82-1.39a1.28 1.28 0 01-1.28.75 1 1 0 01-1.07-.67c-.15-.65.34-.86.92-1a4.58 4.58 0 001.57-.42 3.37 3.37 0 01-.14 1.34m1 .4a3.14 3.14 0 010-.75V68a6 6 0 00-.05-1c-.23-1-1.17-1.28-2.15-1.24a1.65 1.65 0 00-1.83 1.46 1.82 1.82 0 000 .33h.84a1 1 0 011-1h.18a1 1 0 011.18.63c.15.69-.23.76-1.09.87-1.1.16-2.53.33-2.19 1.83a1.9 1.9 0 003.39.56.73.73 0 00.75.7h.07c.56 0 .47-.78.47-.78a.73.73 0 01-.25.08.31.31 0 01-.32-.3m1.07.97v-7.17h.85v4.22l2.16-2.24h1.11l-1.85 1.92 2 3.33h-.18a1.11 1.11 0 01-1-.46l-1.37-2.36-.83.91v1.85zM109 69.74a1.28 1.28 0 01-1.28.75 1 1 0 01-1.07-.67c-.15-.65.34-.86.92-1a4.58 4.58 0 001.57-.42 3.37 3.37 0 01-.14 1.34m1 .4a3.14 3.14 0 010-.75V68a6 6 0 00-.05-1c-.23-1-1.17-1.28-2.15-1.24a1.65 1.65 0 00-1.8 1.48 1.82 1.82 0 000 .33h.84a1 1 0 011-1h.18a1 1 0 011.18.63c.15.69-.23.76-1.09.87-1.1.16-2.53.33-2.19 1.83a1.7 1.7 0 001.88 1.38 1.68 1.68 0 001.54-.82.73.73 0 00.75.7h.07c.56 0 .47-.78.47-.78a1 1 0 01-.29.08.31.31 0 01-.32-.3m.98.95v-7.17h.85v4.22l2.16-2.24h1.11l-1.83 1.92 2 3.33h-.2a1.11 1.11 0 01-1-.46l-1.37-2.35-.83.91v1.85H111zm7.63-1.37a1.32 1.32 0 01-1.3.72 1 1 0 01-1.07-.68c-.15-.65.34-.86.92-1a4.58 4.58 0 001.57-.42 3.44 3.44 0 01-.14 1.35m1 .39a3.14 3.14 0 010-.75V68a6 6 0 000-1c-.23-1-1.17-1.28-2.15-1.24a1.65 1.65 0 00-1.83 1.46 1.82 1.82 0 000 .33h.84a1 1 0 011-1h.18a1 1 0 011.18.63c.15.69-.23.76-1.09.87-1.1.16-2.53.33-2.19 1.83a1.67 1.67 0 001.85 1.34 1.65 1.65 0 001.56-.8.73.73 0 00.75.7h.07c.56 0 .47-.78.47-.78a1.21 1.21 0 01-.25.08.31.31 0 01-.32-.3m5.18-4.24v4.44a3.42 3.42 0 00.09.79h-.22a.69.69 0 01-.7-.68.45.45 0 010-.11 1.83 1.83 0 01-1.66.92 1.52 1.52 0 01-1.71-1.32 5.54 5.54 0 01-.06-1v-3h.84V69a5.34 5.34 0 000 .8 1 1 0 001 .72 1.59 1.59 0 001.49-1.68v-2.95h.92zm7.07 3.86a1.28 1.28 0 01-1.28.75 1 1 0 01-1.07-.67c-.15-.65.34-.86.92-1a4.58 4.58 0 001.57-.42 3.37 3.37 0 01-.14 1.34m1 .4a4.69 4.69 0 010-.75V68a5 5 0 00-.05-1c-.23-1-1.17-1.28-2.15-1.24a1.66 1.66 0 00-1.83 1.46 1.82 1.82 0 000 .33h.84a1 1 0 011-1h.17a1 1 0 011.18.63c.15.69-.23.76-1.09.87-1.1.16-2.53.33-2.19 1.83a1.94 1.94 0 003.44.57.73.73 0 00.75.7h.07c.56 0 .47-.78.47-.78a1 1 0 01-.25.08.31.31 0 01-.32-.3m5.2-4.27v4.44a3.42 3.42 0 00.09.79h-.21a.69.69 0 01-.7-.68.45.45 0 010-.11 1.83 1.83 0 01-1.66.92 1.52 1.52 0 01-1.69-1.32 5.54 5.54 0 01-.06-1v-3h.84V69a5.34 5.34 0 000 .8 1 1 0 001 .72 1.57 1.57 0 001.56-1.61v-3z"/><path class="cls-6" d="M5.54 64.78H3.33v5.53a2.91 2.91 0 00.11.83h-.28a.65.65 0 01-.72-.59v-5.78H.28v-.83h5.26zM46 69.46a2.42 2.42 0 01-2.34 1.85 2.76 2.76 0 010-5.5A2.28 2.28 0 0146 67.65a5.46 5.46 0 01.1 1.07h-4a1.72 1.72 0 001.49 1.93h.18a1.37 1.37 0 001.37-1.21zm-1-1.39a1.49 1.49 0 00-1.39-1.58h-.1a1.54 1.54 0 00-1.47 1.59h3zm-8.83 3.07V64H37v2.79a1.86 1.86 0 011.68-.9 1.52 1.52 0 011.72 1.31 5.54 5.54 0 01.06 1v2.1a3.38 3.38 0 00.08.83h-.24a.66.66 0 01-.72-.6v-2.42a5.34 5.34 0 000-.8 1 1 0 00-1-.72 1.47 1.47 0 00-1.16.6 1.67 1.67 0 00-.35 1.08v2.87zm34.54-6.36h-2.24v5.53a2.91 2.91 0 00.11.83h-.25a.65.65 0 01-.72-.59v-5.78h-2.16v-.83h5.26zm55.91 1.1v1a1.88 1.88 0 011.81-1v1h-.37a1.34 1.34 0 00-1.22.61 2.46 2.46 0 00-.22 1.33v2.44h-.89v-5.38zM25.33 16.81h.1l2.75 8h-5.65zM14.71 33.25h4.86l1.71-4.86h8.15s.89 2.72 1.23 3.62c.72 1.88 5.4 1.23 5.4 1.23l-8.15-21.78H23z"/></g></g></svg>