<svg xmlns="http://www.w3.org/2000/svg" viewBox="0 0 480.5 217.73"><style>.st0{fill:#fff}</style><g id="Artwork"><path class="st0" d="M379.15 145.73V108.3c-4.05-.59-7.16-4.07-7.16-8.28.01-.4.03-.7.03-.7 0-.33-.04-.7-.23-.96-.37-.49-1.18-.87-1.55-1.02l-27.52-10.57-1.12-.43c-.71-.27-1.79-.68-2.56-.6-1.07.11-1.64.53-1.87.74a8.348 8.348 0 01-9.26 2.26c-4.31-1.65-6.46-6.48-4.82-10.79a8.344 8.344 0 0110.79-4.78c3.3 1.26 5.33 4.39 5.37 7.83.02.27.13 1 .89 1.85.53.59 1.63 1.01 2.34 1.28l1.09.42 27.19 10.44.33.13c.38.14 1.24.39 1.84.28.07-.02.15-.04.22-.07-.17-.69-.76-1.37-1.05-1.65L350.9 73.2l-.87-.83c-.55-.53-1.38-1.33-2.12-1.56-1.03-.31-1.72-.15-2.01-.05a8.35 8.35 0 01-9.41-1.54c-3.32-3.2-3.41-8.49-.22-11.81 3.21-3.31 8.49-3.39 11.81-.18 2.54 2.45 3.19 6.12 1.88 9.3-.09.26-.27.97.1 2.05.26.74 1.1 1.57 1.65 2.09l.84.81 20.95 20.23.25.25c.29.27.99.85 1.59.97.07.01.15.02.22.02.12-.7-.17-1.56-.32-1.93L363.72 63.9l-.47-1.1c-.3-.7-.76-1.76-1.35-2.26-.83-.7-1.53-.81-1.83-.83a8.366 8.366 0 01-8.06-5.09c-1.8-4.25.18-9.15 4.42-10.96a8.36 8.36 0 0110.94 4.44c1.38 3.25.55 6.88-1.9 9.3-.18.2-.63.79-.71 1.92-.06.79.41 1.88.7 2.58l.45 1.07 11.38 26.81.14.32c.17.37.58 1.17 1.08 1.51.06.04.13.08.2.11.39-.6.45-1.5.46-1.9V59.15c0-.76-.01-1.92-.36-2.61-.49-.96-1.09-1.34-1.36-1.47a8.361 8.361 0 01-5.43-7.84 8.37 8.37 0 018.35-8.37c4.61.01 8.33 3.75 8.33 8.37 0 3.53-2.19 6.55-5.39 7.82-.25.11-.89.48-1.41 1.49-.36.7-.35 1.89-.35 2.64v30.63c.01.4.07 1.3.4 1.82.12.05.18.02.24-.02.5-.35.91-1.15 1.08-1.51l.14-.32 11.38-26.81.45-1.07c.3-.7.76-1.79.71-2.58-.08-1.14-.52-1.73-.71-1.92-2.45-2.42-3.29-6.05-1.9-9.3 1.8-4.25 6.69-6.24 10.93-4.44a8.36 8.36 0 014.42 10.96 8.366 8.366 0 01-8.06 5.09c-.3.01-1 .13-1.83.83-.59.5-1.05 1.56-1.34 2.26l-.47 1.1-11.52 27.13c-.15.37-.44 1.23-.34 1.83.1.1.18.1.25.08.6-.13 1.29-.7 1.58-.97l.26-.25 20.95-20.23.84-.81c.54-.53 1.4-1.35 1.65-2.09.38-1.08.19-1.8.1-2.05-1.31-3.18-.66-6.85 1.88-9.3 3.32-3.2 8.6-3.12 11.81.18 3.19 3.33 3.1 8.61-.22 11.81a8.35 8.35 0 01-9.41 1.54c-.28-.11-.98-.27-2.01.05-.74.23-1.58 1.03-2.13 1.56l-.86.83-21.2 20.48c-.29.28-.88.96-1.03 1.55.05.14.13.16.2.18.6.12 1.46-.14 1.84-.28l.33-.13 27.19-10.44 1.09-.42c.71-.27 1.81-.69 2.34-1.28.76-.85.88-1.58.89-1.85.04-3.44 2.07-6.57 5.37-7.83 4.31-1.65 9.13.48 10.79 4.78 1.64 4.31-.51 9.14-4.81 10.79a8.367 8.367 0 01-9.27-2.26c-.22-.21-.79-.63-1.86-.74-.77-.08-1.85.33-2.56.6l-1.12.43-27.51 10.57c-.38.15-1.19.54-1.55 1.02-.22.3-.25.77-.23 1.13.02.29.01.35.01.35v.17c0 4.21-3.11 7.69-7.15 8.28v37.43h-2.43z"/><path class="st0" d="M384.25 121.42c16.41-7.84 33.79-15.08 51.77-18.26 2.91 7.7-6.28 13.06-11.98 15.9-11.87 5.18-27.44 7.18-39.79 2.36m-7.3-1.69c-16.24-7.9-33.61-15.11-51.54-17.89 5.14-6.8 15.25-6.29 22.7-4.83 12.09 3.09 23.32 11.32 28.84 22.72m-.51 1.69c-12.35 4.82-27.92 2.82-39.8-2.36-5.69-2.84-14.88-8.19-11.97-15.9 17.98 3.18 35.36 10.42 51.77 18.26m7.31-1.69c5.52-11.4 16.75-19.63 28.84-22.71 7.45-1.46 17.56-1.97 22.7 4.83-17.94 2.77-35.31 9.98-51.54 17.88m54.4 45.17c-4.54 1.8-9.29 2.67-13.38 2.67-6.94 0-15.71-2.5-22.19-7.79-6.51 5.29-15.33 7.79-22.27 7.79-6.94 0-15.71-2.5-22.19-7.79-6.51 5.29-15.33 7.79-22.27 7.79-4.08 0-8.79-.87-13.3-2.65v-6.26c4.19 1.84 8.74 2.85 13.3 2.85 8.1 0 16.19-3.21 22.27-8.49 6.06 5.29 14.11 8.49 22.19 8.49 8.09 0 16.19-3.21 22.27-8.49 6.06 5.29 14.11 8.49 22.19 8.49 4.58 0 9.17-1.03 13.38-2.88v6.27zm0 10.28c-4.54 1.8-9.29 2.67-13.38 2.67-6.94 0-15.71-2.5-22.19-7.79-6.51 5.29-15.33 7.79-22.27 7.79-6.94 0-15.71-2.5-22.19-7.79-6.51 5.29-15.33 7.79-22.27 7.79-4.08 0-8.79-.86-13.3-2.65v-6.27c4.19 1.84 8.74 2.86 13.3 2.86 8.1 0 16.19-3.21 22.27-8.49 6.06 5.28 14.11 8.49 22.19 8.49 8.09 0 16.19-3.21 22.27-8.49 6.06 5.28 14.11 8.49 22.19 8.49 4.58 0 9.17-1.03 13.38-2.88v6.27zm-39.52-30c1.59-1.36 2.94-2.92 3.94-4.67 1.01 1.75 2.36 3.31 3.94 4.67 4.98 4.29 12.25 6.61 18.25 6.61 4.23 0 9.12-1.16 13.38-3.34v6.42c-4.53 1.86-9.3 2.76-13.38 2.76-6.98 0-15.88-2.63-22.19-8.13-6.34 5.5-15.29 8.13-22.27 8.13s-15.88-2.63-22.19-8.13c-6.34 5.5-15.3 8.13-22.27 8.13-4.08 0-8.81-.9-13.3-2.74v-6.43c4.24 2.17 9.09 3.32 13.3 3.32 6 0 13.33-2.32 18.33-6.61 1.59-1.36 2.94-2.92 3.95-4.67 1.01 1.75 2.35 3.31 3.94 4.67 4.98 4.29 12.25 6.61 18.24 6.61 6 .01 13.33-2.31 18.33-6.6m-176.49-24.66l.05 23.86c.09 2.51.32 5.57 1.09 6.81 0 0-2.95.27-5.46-.23-1.97-.36-3.67-1.14-3.67-2.73l-.01-1.34c-2.31 3.44-5.99 5.1-9.54 5.1-8.95 0-11.2-5.04-11.2-12.63v-18.84h8.41v17.3c0 5.03 1.48 7.53 5.39 7.53 4.56 0 6.52-2.55 6.52-8.78v-16.06h8.42zm2.96 30.63v-30.64h8v4.26c2.32-3.43 5.99-5.09 9.54-5.09 8.95 0 11.2 5.04 11.2 12.62v12.29l.02 2.56c0 2.78.31 2.78 1.08 4.02 0 0-2.18.19-4.45-.03-2.47-.24-5.05-.96-5.05-2.93l-.01-14.38c0-5.03-1.48-7.53-5.39-7.53-4.57 0-6.52 2.55-6.52 8.77v16.06h-8.42zm74.06-2.61v-41.4c.51.98 3.09 1.37 5.31 1.54 1.21.1 2.34.09 3.11.09l.01 35.6c.06 2.96.3 5.57 1.07 6.81 0 0-2.17.19-4.44-.03-.44-.04-.85-.1-1.27-.17l-.28-.05-.23-.05-.36-.09-.24-.06-.39-.12-.33-.12c-1.19-.52-1.83-1.1-1.96-1.95m-3.13-32.77h-8.42v-6.93h8.42v6.93zm-8.41 4.75h8.42v30.64h-8.42v-30.64zm-2.01 10.78h-8.24c-.54-3.44-2.73-5.27-6.22-5.27-5.4 0-7.17 5.45-7.17 9.96 0 4.38 1.72 9.66 6.99 9.66 3.91 0 6.16-2.49 6.7-6.22h8.12c-1.07 8.12-6.7 12.57-14.76 12.57-9.24 0-15.47-6.52-15.47-15.71 0-9.54 5.69-16.6 15.65-16.6 7.23-.01 13.87 3.79 14.4 11.61m-117.22 4.57c0 4.86 1.72 9.78 7.41 9.78 5.75 0 7.47-4.92 7.47-9.78 0-4.92-1.72-9.84-7.47-9.84-5.69 0-7.41 4.92-7.41 9.84m-8.41 0c0-9.78 6.22-16.18 15.82-16.18 9.66 0 15.89 6.41 15.89 16.18 0 9.72-6.23 16.12-15.89 16.12-9.6 0-15.82-6.4-15.82-16.12m-2.01-12.8h-9.01c-.59-4.21-4.62-7.41-9.25-7.41-8.35 0-11.49 7.11-11.49 14.52 0 7.05 3.14 14.17 11.49 14.17 5.69 0 8.89-3.91 9.6-9.48h9.01c-.95 10.55-8.24 17.31-18.61 17.31-13.1 0-20.8-9.78-20.8-21.99 0-12.57 7.7-22.34 20.8-22.34 9.31-.02 17.13 5.43 18.26 15.22m-1.2-26.22c-5.28 0-7-5.27-7-9.66 0-4.51 1.78-9.95 7.17-9.95 3.5 0 5.69 1.84 6.22 5.27h8.24c-.53-7.82-7.17-11.61-14.4-11.61-9.96 0-15.65 7.05-15.65 16.59 0 9.19 6.23 15.71 15.47 15.71 8.06 0 13.69-4.45 14.76-12.56h-8.12c-.52 3.72-2.78 6.21-6.69 6.21zm45.57-25.13h-9.96l-10.61 11.02v-22.7h-8.41v42.31h8.41V91.81l3.26-3.14 6.11 9.93s2.01 3.76 8.73 3.76h3.78l-12.86-19.38 11.55-11.26zm-62.69 0h-8.42v16.06c0 6.22-1.96 8.77-6.52 8.77-3.91 0-5.4-2.49-5.4-7.53v-17.3h-8.42v18.85c0 7.59 2.25 12.62 11.2 12.62 3.55 0 7.23-1.66 9.54-5.09l.01 1.34c0 1.59 1.7 2.37 3.67 2.73 2.51.5 5.47.23 5.47.23-.77-1.24-1.04-4.3-1.13-6.81V71.72zm167.94 23.86l-.01-1.64V60.08h-8.42l-.12 15.41c-1.89-3.02-5.45-4.57-9.07-4.57-9.01 0-13.57 7.65-13.57 15.89 0 8.47 4.5 16.42 13.75 16.42 3.63 0 6.86-1.23 9.01-4.06l-.02.27c0 .1.01.19.02.28.25 1.86 2.99 2.49 5.47 2.68 2.1.17 4.02 0 4.02 0-.76-1.25-1.06-4.03-1.06-6.82zm-15.36 1.3c-5.22 0-7.41-5.03-7.41-9.84 0-5.03 1.9-9.78 7.41-9.78 5.45 0 7.23 4.74 7.23 9.72.01 5.05-1.65 9.9-7.23 9.9zm-17.31-1.08V83.51c0-7.59-2.25-12.62-11.2-12.62-3.55 0-7.23 1.66-9.54 5.1v-4.27h-8v30.64h8.41V86.3c0-6.22 1.96-8.77 6.52-8.77 3.91 0 5.4 2.49 5.4 7.53l.01 14.38c0 1.96 2.58 2.68 5.05 2.92 2.27.22 4.45.03 4.45.03-.77-1.24-1.09-1.24-1.09-4.03l-.01-2.56zM243.4 79.6c0-7.34-7.35-8.71-13.46-8.71-6.88 0-13.93 2.37-14.4 10.25h8.41c.3-3.32 2.37-4.62 5.57-4.62 2.96 0 5.45.53 5.45 4.15 0 3.44-4.8 3.26-9.96 4.03-5.21.71-10.43 2.37-10.43 9.31 0 6.28 4.63 9.19 10.43 9.19 3.74 0 7.65-1.01 10.32-3.79 0 3.77 9.12 2.96 9.12 2.96-.77-1.24-1.07-4.03-1.07-6.81V79.6zm-8.42 10.91c0 1.84-.24 7.05-6.81 7.05-2.73 0-5.16-.77-5.16-3.91 0-3.08 2.37-3.97 4.98-4.51 2.6-.47 5.57-.53 6.99-1.77v3.14zM213 60.05h-8.42v39.7c.13.84.77 1.43 1.67 1.84l.29.12.34.13.38.11.24.06.37.09.23.05.29.05c.4.07.82.13 1.27.17 2.26.22 4.43.03 4.43.03-.77-1.24-1.01-3.86-1.07-6.81L213 60.05z"/><path id="XMLID_123_" class="st0" d="M98.05 175.31l.07-10.1h1.6v1.52c.65-1.13 1.89-1.76 3.27-1.76 1.9 0 2.98.82 3.35 2.6.09.43.13 1.19.11 1.97l-.04 4.15c0 .98.16 1.62.16 1.62h-.42c-1.21 0-1.38-.91-1.4-1.32l.07-4.58c0-.37-.01-1.21-.09-1.57-.2-.96-1.07-1.4-2.05-1.4-.92 0-1.77.51-2.26 1.17-.49.51-.64 1.31-.69 2.11l-.03 5.59h-1.65z"/><path class="st0" d="M59.84 171.99c-.23.68-1.13 3.58-4.52 3.58-2.97 0-4.9-2.02-4.9-5.39 0-3.78 2.72-5.22 4.84-5.22 1.85 0 3.8 1.02 4.4 3.55.19.85.19 1.61.19 2.04h-7.6c-.04 1.68.85 3.76 3.23 3.76 1.51 0 2.36-1 2.65-2.34l1.71.02zm-1.85-2.66c-.15-2.63-2.04-3.08-2.87-3.08-1.44 0-2.65 1.06-2.84 3.08h5.71zm13.41-.84l-1.96 1.98v4.83H67.6v-13.85h1.84v6.77l6.57-6.77h2.28l-5.61 5.73-1.28 1.31zm1.28-1.32l5.16 8.13h-.36c-1.57 0-2.41-.75-2.41-.75l-3.67-6.07m62.47-3.32v1.85c.97-1.92 2.8-1.96 3.49-1.98v1.85c-.22-.02-.43-.04-.71-.04-.99 0-1.85.39-2.35 1.21-.45.75-.43 1.64-.43 2.56v4.69h-1.72v-10.14h1.72zm67.3 8.53v-4.63c0-.99-.02-1.67-.27-2.28-.4-.97-1.5-1.73-2.73-1.73-1.48 0-2.45.97-3.32 1.84-.46-.78-1.08-1.84-2.71-1.84-.74 0-1.78.23-2.98 1.65v-1.33h-1.65v8.79c.02.41.13 1.14 1.33 1.14h.41s-.08-.62-.08-1.59l-.01-4.29c0-.89 0-1.44.66-2.03.53-.47 1.23-.74 1.86-.74.74 0 1.23.36 1.46.68.38.51.38 1.21.38 1.59v.54l.02 4.78c.02.41.13 1.07 1.33 1.07h.41s-.08-.62-.08-1.59l-.03-4.33c.01-.95.1-1.38.59-1.89s1.25-.85 1.95-.85c.36 0 1.42.11 1.73 1.25.09.34.09.64.09 1.55l-.02 4.71c.02.41.13 1.14 1.33 1.14h.41c.01-.03-.07-.65-.08-1.61zm43.27-.01l.02-4.32v-7.93h-2.37l-4.28 10.88-4.26-10.88h-2.37v12.7c.02.41.19 1.14 1.33 1.14l.57.02s-.12-.63-.12-1.6l-.07-4.33-.09-5.5 3.81 10.15c.14.38.39 1.21 1.6 1.29l.24.02.59-1.54h-.01l3.87-10.1-.12 5.69-.1 4.76c.02.41.31 1.14 1.33 1.14l.57.02c-.02-.01-.14-.64-.14-1.61z"/><path id="XMLID_119_" class="st0" d="M84.38 172.61c-.37.91-1.21 1.38-2.46 1.44-.91.04-1.87-.37-2.07-1.3-.28-1.27.66-1.69 1.78-1.92 1.14-.21 2.39-.37 3.04-.83-.03.95.08 1.83-.29 2.61m1.9.75c-.1-.46-.04-1.03-.05-1.44l.02-2.74c-.01-.54.02-1.27-.1-1.83-.45-2.02-2.26-2.46-4.16-2.37-2.09.1-3.7 1.21-3.53 3.44l1.62-.08c-.1-1.3 1-1.86 2.24-1.92.86-.04 2.03.13 2.27 1.22.3 1.33-.44 1.46-2.11 1.7-2.12.3-4.87.62-4.23 3.51.46 2.04 2 2.75 3.63 2.67 1.65-.08 2.49-.64 3.01-1.57.1.87.69 1.39 1.58 1.35 1.08-.05.91-1.51.91-1.51-.14.07-.33.15-.48.16-.28.01-.52-.13-.62-.59"/><path id="XMLID_118_" class="st0" d="M96.21 165.14l-.01 8.59c0 .89.17 1.53.17 1.53h-.41c-1.47.01-1.33-1.52-1.33-1.52-.63 1.14-1.84 1.77-3.2 1.78-1.86.01-2.93-.81-3.3-2.58-.09-.43-.13-1.19-.12-1.98l.02-5.78 1.63-.01-.05 5.91c0 .37.02 1.21.09 1.57.2.96 1.06 1.4 2.02 1.4 1.8-.01 2.87-1.62 2.87-3.3v-5.6l1.62-.01z"/><path id="XMLID_117_" class="st0" d="M108.23 161.44l-.01 2.02h1.67v-2.02z"/><path id="XMLID_116_" class="st0" d="M108.21 175.27l.02-10.01h1.64l-.02 10.01z"/><path id="XMLID_113_" class="st0" d="M144 172.61c-.37.91-1.21 1.38-2.46 1.44-.91.04-1.87-.37-2.07-1.3-.28-1.27.66-1.69 1.78-1.92 1.14-.21 2.39-.37 3.04-.83-.03.95.07 1.83-.29 2.61m1.89.75c-.1-.46-.04-1.03-.05-1.44l.02-2.74c-.01-.54.02-1.27-.1-1.83-.45-2.02-2.26-2.46-4.16-2.37-2.09.1-3.7 1.21-3.53 3.44l1.62-.08c-.1-1.3 1-1.86 2.24-1.92.86-.04 2.03.13 2.27 1.22.3 1.33-.44 1.46-2.11 1.7-2.12.3-4.87.62-4.23 3.51.46 2.04 2 2.75 3.63 2.67 1.65-.08 2.49-.64 3.01-1.57.1.87.69 1.39 1.58 1.35 1.08-.05.91-1.51.91-1.51-.14.07-.33.15-.48.16-.27.01-.51-.13-.62-.59"/><path class="st0" d="M159.09 175.68c-3.46 0-4.92-2.59-4.92-5.21 0-2.23 1.1-5.38 4.98-5.38 3.31 0 4.83 2.56 4.81 5.3-.01 3.02-1.81 5.29-4.87 5.29zm2.93-6.7c-.38-1.97-1.68-2.54-2.82-2.54-2.27 0-3.18 1.76-3.18 4.05 0 2.1.87 3.84 3.05 3.84 2.82 0 3.03-2.92 3.05-3.94.03-.65-.04-1.11-.1-1.41zm21.6-6.34s-.16 1.22-.89 1.22h-2.4c-.84 0-.48-1.22-.48-1.22h3.77z"/><path id="XMLID_110_" class="st0" d="M183.52 172.61c-.37.91-1.21 1.38-2.46 1.44-.91.04-1.87-.37-2.07-1.3-.28-1.27.66-1.69 1.78-1.92 1.14-.21 2.39-.37 3.04-.83-.03.95.07 1.83-.29 2.61m1.89.75c-.1-.46-.04-1.03-.05-1.44l.02-2.74c-.01-.54.02-1.27-.1-1.83-.45-2.02-2.26-2.46-4.16-2.37-2.09.1-3.7 1.21-3.53 3.44l1.62-.08c-.1-1.3 1-1.86 2.24-1.92.86-.04 2.03.13 2.27 1.22.3 1.33-.44 1.46-2.11 1.7-2.12.3-4.87.62-4.23 3.51.46 2.04 2 2.75 3.63 2.67 1.65-.08 2.49-.64 3.01-1.57.1.87.69 1.39 1.58 1.35 1.08-.05.91-1.51.91-1.51-.14.07-.33.15-.48.16-.27.01-.52-.13-.62-.59"/><path id="XMLID_109_" class="st0" d="M222.04 161.44l-.01 2.02h1.66l.01-2.02z"/><path id="XMLID_108_" class="st0" d="M222.01 175.27l.02-10.01h1.65l-.02 10.01z"/><path id="XMLID_105_" class="st0" d="M208.85 172.61c-.37.91-1.21 1.38-2.46 1.44-.91.04-1.87-.37-2.07-1.3-.28-1.27.66-1.69 1.78-1.92 1.14-.21 2.39-.37 3.04-.83-.03.95.07 1.83-.29 2.61m1.89.75c-.1-.46-.04-1.03-.05-1.44l.02-2.74c-.01-.54.02-1.27-.1-1.83-.45-2.02-2.26-2.46-4.16-2.37-2.09.1-3.7 1.21-3.53 3.44l1.62-.08c-.1-1.3 1-1.86 2.24-1.92.86-.04 2.03.13 2.27 1.22.3 1.33-.44 1.46-2.11 1.7-2.12.3-4.87.62-4.23 3.51.46 2.04 2 2.75 3.63 2.67 1.65-.08 2.49-.64 3.01-1.57.1.87.69 1.39 1.58 1.35 1.08-.05.91-1.51.91-1.51-.14.07-.33.15-.48.16-.27.01-.51-.13-.62-.59"/><path id="XMLID_104_" class="st0" d="M212.84 175.24l-.01-13.83h1.64l-.01 8.14 4.17-4.32h2.15l-3.57 3.7 3.9 6.42h-.36c-1.57 0-2-.9-2-.9l-2.65-4.54-1.6 1.76v3.56h-1.66z"/><path id="XMLID_101_" class="st0" d="M252.28 172.61c-.37.91-1.21 1.38-2.46 1.44-.91.04-1.87-.37-2.07-1.3-.28-1.27.66-1.69 1.78-1.92 1.14-.21 2.39-.37 3.04-.83-.03.95.08 1.83-.29 2.61m1.9.75c-.1-.46-.04-1.03-.05-1.44l.02-2.74c-.01-.54.02-1.27-.1-1.83-.45-2.02-2.26-2.46-4.16-2.37-2.09.1-3.7 1.21-3.53 3.44l1.62-.08c-.1-1.3 1-1.86 2.24-1.92.86-.04 2.03.13 2.27 1.22.3 1.33-.44 1.46-2.11 1.7-2.12.3-4.87.62-4.23 3.51.46 2.04 2 2.75 3.63 2.67 1.65-.08 2.49-.64 3.01-1.57.1.87.69 1.39 1.58 1.35 1.08-.05.91-1.51.91-1.51-.14.07-.33.15-.48.16-.27.01-.52-.13-.62-.59"/><path id="XMLID_100_" class="st0" d="M256.13 175.24l-.01-13.83h1.64l-.01 8.14 4.17-4.32h2.15l-3.57 3.7 3.9 6.42h-.36c-1.57 0-2-.9-2-.9l-2.65-4.54-1.6 1.76v3.56h-1.66z"/><path id="XMLID_97_" class="st0" d="M270.8 172.61c-.37.91-1.21 1.38-2.46 1.44-.91.04-1.87-.37-2.07-1.3-.28-1.27.66-1.69 1.78-1.92 1.14-.21 2.39-.37 3.04-.83-.04.95.07 1.83-.29 2.61m1.89.75c-.1-.46-.04-1.03-.05-1.44l.02-2.74c-.01-.54.02-1.27-.1-1.83-.45-2.02-2.26-2.46-4.16-2.37-2.09.1-3.7 1.21-3.53 3.44l1.62-.08c-.1-1.3 1-1.86 2.24-1.92.86-.04 2.03.13 2.27 1.22.3 1.33-.44 1.46-2.11 1.7-2.12.3-4.87.62-4.23 3.51.46 2.04 2 2.75 3.63 2.67 1.65-.08 2.49-.64 3.01-1.57.1.87.69 1.39 1.58 1.35 1.08-.05.91-1.51.91-1.51-.14.07-.33.15-.48.16-.27.01-.52-.13-.62-.59"/><path id="XMLID_96_" class="st0" d="M282.82 165.14l-.01 8.59c0 .89.17 1.53.17 1.53h-.41c-1.47.01-1.33-1.52-1.33-1.52-.63 1.14-1.84 1.77-3.2 1.78-1.86.01-2.93-.81-3.3-2.58-.09-.43-.13-1.19-.12-1.98l.02-5.78 1.63-.01-.05 5.91c0 .37.02 1.21.09 1.57.2.96 1.06 1.4 2.02 1.4 1.8-.01 2.87-1.62 2.87-3.3v-5.6l1.62-.01z"/><path id="XMLID_93_" class="st0" d="M296.46 172.61c-.37.91-1.21 1.38-2.46 1.44-.91.04-1.87-.37-2.07-1.3-.28-1.27.66-1.69 1.78-1.92 1.14-.21 2.39-.37 3.04-.83-.03.95.07 1.83-.29 2.61m1.89.75c-.1-.46-.04-1.03-.05-1.44l.02-2.74c-.01-.54.02-1.27-.1-1.83-.45-2.02-2.26-2.46-4.16-2.37-2.09.1-3.7 1.21-3.53 3.44l1.62-.08c-.1-1.3 1-1.86 2.24-1.92.86-.04 2.03.13 2.27 1.22.3 1.33-.44 1.46-2.11 1.7-2.12.3-4.87.62-4.23 3.51.46 2.04 2 2.75 3.63 2.67 1.65-.08 2.49-.64 3.01-1.57.1.87.69 1.39 1.58 1.35 1.08-.05.91-1.51.91-1.51-.14.07-.33.15-.48.16-.27.01-.51-.13-.62-.59"/><path id="XMLID_92_" class="st0" d="M308.51 165.14l-.01 8.59c0 .89.17 1.53.17 1.53h-.41c-1.47.01-1.33-1.52-1.33-1.52-.63 1.14-1.84 1.77-3.2 1.78-1.86.01-2.93-.81-3.3-2.58-.09-.43-.13-1.19-.12-1.98l.02-5.78 1.63-.01-.05 5.91c0 .37.02 1.21.09 1.57.2.96 1.06 1.4 2.02 1.4 1.8-.01 2.87-1.62 2.87-3.3v-5.6l1.62-.01z"/><path id="XMLID_91_" class="st0" d="M52.49 163.05l-4.33-.02-.02 10.65c.01.97.21 1.61.21 1.61h-.45c-1.19 0-1.37-.9-1.39-1.32l-.02-10.94-4.16.02v-1.63h10.16v1.63z"/><path class="st0" d="M130.65 172.11c-.23.68-1.13 3.58-4.52 3.58-2.97 0-4.9-2.02-4.9-5.39 0-3.78 2.72-5.22 4.84-5.22 1.85 0 3.8 1.02 4.4 3.55.19.85.19 1.61.19 2.04h-7.6c-.04 1.68.85 3.76 3.23 3.76 1.51 0 2.36-1 2.65-2.34l1.71.02zm-1.84-2.66c-.15-2.63-2.04-3.08-2.87-3.08-1.44 0-2.65 1.06-2.84 3.08h5.71z"/><path id="XMLID_90_" class="st0" d="M111.62 175.31l.07-13.88h1.59v5.38c.64-1.12 1.87-1.74 3.25-1.74 1.88 0 2.96.81 3.32 2.58.09.43.12 1.18.11 1.95l-.04 4.12c0 .97.16 1.6.16 1.6h-.41c-1.2 0-1.37-.9-1.39-1.31l.07-4.54c0-.37-.01-1.2-.08-1.55-.19-.95-1.06-1.39-2.03-1.39-.91 0-1.76.5-2.24 1.16-.48.5-.63 1.29-.68 2.09l-.03 5.54h-1.67z"/><path id="XMLID_89_" class="st0" d="M178.29 163.05l-4.33-.02-.02 10.65c.01.97.21 1.61.21 1.61h-.45c-1.19 0-1.37-.9-1.39-1.32l-.02-10.94-4.16.02v-1.63h10.16v1.63z"/><path class="st0" d="M286.21 165.16v1.85c.97-1.92 2.8-1.96 3.49-1.98v1.85c-.22-.02-.43-.04-.71-.04-.99 0-1.85.39-2.35 1.21-.45.75-.43 1.64-.43 2.56v4.69h-1.72v-10.14h1.72z"/><path id="XMLID_5_" class="st0" d="M90.77 70.43h.12l5.31 15.45H85.29l5.48-15.45zm-20.58 31.72h9.38l3.31-9.37h15.75s1.71 5.26 2.38 6.99c1.38 3.63 10.42 2.38 10.42 2.38L95.67 60.04h-9.5l-15.98 42.11z"/></g></svg>