<?xml version="1.0" encoding="utf-8"?>
<!-- Generator: Adobe Illustrator 25.2.3, SVG Export Plug-In . SVG Version: 6.00 Build 0)  -->
<svg version="1.1" xmlns="http://www.w3.org/2000/svg" xmlns:xlink="http://www.w3.org/1999/xlink" x="0px" y="0px"
	 viewBox="0 0 480.5 217.73" style="enable-background:new 0 0 480.5 217.73;" xml:space="preserve">
<style type="text/css">
	.st0{fill:#FFFFFF;}
</style>
<g id="Guides">
</g>
<g id="Artwork">
	<g>
		<g>
			<path class="st0" d="M379.15,145.73v-37.43c-4.05-0.59-7.16-4.07-7.16-8.28c0.01-0.4,0.03-0.7,0.03-0.7
				c0-0.33-0.04-0.7-0.23-0.96c-0.37-0.49-1.18-0.87-1.55-1.02l-27.52-10.57l-1.12-0.43c-0.71-0.27-1.79-0.68-2.56-0.6
				c-1.07,0.11-1.64,0.53-1.87,0.74c-2.24,2.54-5.91,3.55-9.26,2.26c-4.31-1.65-6.46-6.48-4.82-10.79c1.66-4.3,6.49-6.44,10.79-4.78
				c3.3,1.26,5.33,4.39,5.37,7.83c0.02,0.27,0.13,1,0.89,1.85c0.53,0.59,1.63,1.01,2.34,1.28l1.09,0.42l27.19,10.44l0.33,0.13
				c0.38,0.14,1.24,0.39,1.84,0.28c0.07-0.02,0.15-0.04,0.22-0.07c-0.17-0.69-0.76-1.37-1.05-1.65l-21.2-20.48l-0.87-0.83
				c-0.55-0.53-1.38-1.33-2.12-1.56c-1.03-0.31-1.72-0.15-2.01-0.05c-3.06,1.46-6.83,0.96-9.41-1.54c-3.32-3.2-3.41-8.49-0.22-11.81
				c3.21-3.31,8.49-3.39,11.81-0.18c2.54,2.45,3.19,6.12,1.88,9.3c-0.09,0.26-0.27,0.97,0.1,2.05c0.26,0.74,1.1,1.57,1.65,2.09
				l0.84,0.81l20.95,20.23l0.25,0.25c0.29,0.27,0.99,0.85,1.59,0.97c0.07,0.01,0.15,0.02,0.22,0.02c0.12-0.7-0.17-1.56-0.32-1.93
				L363.72,63.9l-0.47-1.1c-0.3-0.7-0.76-1.76-1.35-2.26c-0.83-0.7-1.53-0.81-1.83-0.83c-3.38,0.15-6.66-1.79-8.06-5.09
				c-1.8-4.25,0.18-9.15,4.42-10.96c4.25-1.79,9.14,0.2,10.94,4.44c1.38,3.25,0.55,6.88-1.9,9.3c-0.18,0.2-0.63,0.79-0.71,1.92
				c-0.06,0.79,0.41,1.88,0.7,2.58l0.45,1.07l11.38,26.81l0.14,0.32c0.17,0.37,0.58,1.17,1.08,1.51c0.06,0.04,0.13,0.08,0.2,0.11
				c0.39-0.6,0.45-1.5,0.46-1.9V60.35v-1.2c0-0.76-0.01-1.92-0.36-2.61c-0.49-0.96-1.09-1.34-1.36-1.47
				c-3.18-1.19-5.43-4.25-5.43-7.84c0-4.61,3.73-8.36,8.35-8.37c4.61,0.01,8.33,3.75,8.33,8.37c0,3.53-2.19,6.55-5.39,7.82
				c-0.25,0.11-0.89,0.48-1.41,1.49c-0.36,0.7-0.35,1.89-0.35,2.64l0,1.16v29.12l0,0.35c0.01,0.4,0.07,1.3,0.4,1.82
				c0.12,0.05,0.18,0.02,0.24-0.02c0.5-0.35,0.91-1.15,1.08-1.51l0.14-0.32l11.38-26.81l0.45-1.07c0.3-0.7,0.76-1.79,0.71-2.58
				c-0.08-1.14-0.52-1.73-0.71-1.92c-2.45-2.42-3.29-6.05-1.9-9.3c1.8-4.25,6.69-6.24,10.93-4.44c4.25,1.81,6.22,6.71,4.42,10.96
				c-1.4,3.3-4.68,5.24-8.06,5.09c-0.3,0.01-1,0.13-1.83,0.83c-0.59,0.5-1.05,1.56-1.34,2.26l-0.47,1.1l-11.52,27.13
				c-0.15,0.37-0.44,1.23-0.34,1.83c0.1,0.1,0.18,0.1,0.25,0.08c0.6-0.13,1.29-0.7,1.58-0.97l0.26-0.25l20.95-20.23l0.84-0.81
				c0.54-0.53,1.4-1.35,1.65-2.09c0.38-1.08,0.19-1.8,0.1-2.05c-1.31-3.18-0.66-6.85,1.88-9.3c3.32-3.2,8.6-3.12,11.81,0.18
				c3.19,3.33,3.1,8.61-0.22,11.81c-2.58,2.5-6.35,3-9.41,1.54c-0.28-0.11-0.98-0.27-2.01,0.05c-0.74,0.23-1.58,1.03-2.13,1.56
				l-0.86,0.83l-21.2,20.48c-0.29,0.28-0.88,0.96-1.03,1.55c0.05,0.14,0.13,0.16,0.2,0.18c0.6,0.12,1.46-0.14,1.84-0.28l0.33-0.13
				l27.19-10.44l1.09-0.42c0.71-0.27,1.81-0.69,2.34-1.28c0.76-0.85,0.88-1.58,0.89-1.85c0.04-3.44,2.07-6.57,5.37-7.83
				c4.31-1.65,9.13,0.48,10.79,4.78c1.64,4.31-0.51,9.14-4.81,10.79c-3.35,1.29-7.02,0.28-9.27-2.26c-0.22-0.21-0.79-0.63-1.86-0.74
				c-0.77-0.08-1.85,0.33-2.56,0.6l-1.12,0.43l-27.51,10.57c-0.38,0.15-1.19,0.54-1.55,1.02c-0.22,0.3-0.25,0.77-0.23,1.13
				c0.02,0.29,0.01,0.35,0.01,0.35v0.17c0,4.21-3.11,7.69-7.15,8.28v37.43H379.15z"/>
			<path class="st0" d="M384.25,121.42c16.41-7.84,33.79-15.08,51.77-18.26c2.91,7.7-6.28,13.06-11.98,15.9
				C412.17,124.24,396.6,126.24,384.25,121.42 M376.95,119.73c-16.24-7.9-33.61-15.11-51.54-17.89c5.14-6.8,15.25-6.29,22.7-4.83
				C360.2,100.1,371.43,108.33,376.95,119.73 M376.44,121.42c-12.35,4.82-27.92,2.82-39.8-2.36c-5.69-2.84-14.88-8.19-11.97-15.9
				C342.65,106.34,360.03,113.58,376.44,121.42 M383.75,119.73c5.52-11.4,16.75-19.63,28.84-22.71c7.45-1.46,17.56-1.97,22.7,4.83
				C417.35,104.62,399.98,111.83,383.75,119.73"/>
			<path class="st0" d="M438.15,164.9c-4.54,1.8-9.29,2.67-13.38,2.67c-6.94,0-15.71-2.5-22.19-7.79
				c-6.51,5.29-15.33,7.79-22.27,7.79c-6.94,0-15.71-2.5-22.19-7.79c-6.51,5.29-15.33,7.79-22.27,7.79c-4.08,0-8.79-0.87-13.3-2.65
				v-6.26c4.19,1.84,8.74,2.85,13.3,2.85c8.1,0,16.19-3.21,22.27-8.49c6.06,5.29,14.11,8.49,22.19,8.49
				c8.09,0,16.19-3.21,22.27-8.49c6.06,5.29,14.11,8.49,22.19,8.49c4.58,0,9.17-1.03,13.38-2.88V164.9z M438.15,175.18
				c-4.54,1.8-9.29,2.67-13.38,2.67c-6.94,0-15.71-2.5-22.19-7.79c-6.51,5.29-15.33,7.79-22.27,7.79c-6.94,0-15.71-2.5-22.19-7.79
				c-6.51,5.29-15.33,7.79-22.27,7.79c-4.08,0-8.79-0.86-13.3-2.65v-6.27c4.19,1.84,8.74,2.86,13.3,2.86
				c8.1,0,16.19-3.21,22.27-8.49c6.06,5.28,14.11,8.49,22.19,8.49c8.09,0,16.19-3.21,22.27-8.49c6.06,5.28,14.11,8.49,22.19,8.49
				c4.58,0,9.17-1.03,13.38-2.88V175.18z M398.63,145.18c1.59-1.36,2.94-2.92,3.94-4.67c1.01,1.75,2.36,3.31,3.94,4.67
				c4.98,4.29,12.25,6.61,18.25,6.61c4.23,0,9.12-1.16,13.38-3.34v6.42c-4.53,1.86-9.3,2.76-13.38,2.76
				c-6.98,0-15.88-2.63-22.19-8.13c-6.34,5.5-15.29,8.13-22.27,8.13c-6.98,0-15.88-2.63-22.19-8.13c-6.34,5.5-15.3,8.13-22.27,8.13
				c-4.08,0-8.81-0.9-13.3-2.74v-6.43c4.24,2.17,9.09,3.32,13.3,3.32c6,0,13.33-2.32,18.33-6.61c1.59-1.36,2.94-2.92,3.95-4.67
				c1.01,1.75,2.35,3.31,3.94,4.67c4.98,4.29,12.25,6.61,18.24,6.61C386.3,151.79,393.63,149.47,398.63,145.18"/>
		</g>
		<g>
			<path class="st0" d="M222.14,120.52l0.05,23.86c0.09,2.51,0.32,5.57,1.09,6.81c0,0-2.95,0.27-5.46-0.23
				c-1.97-0.36-3.67-1.14-3.67-2.73l-0.01-1.34c-2.31,3.44-5.99,5.1-9.54,5.1c-8.95,0-11.2-5.04-11.2-12.63v-18.84h8.41v17.3
				c0,5.03,1.48,7.53,5.39,7.53c4.56,0,6.52-2.55,6.52-8.78v-16.06H222.14z M225.1,151.15v-30.64h8v4.26
				c2.32-3.43,5.99-5.09,9.54-5.09c8.95,0,11.2,5.04,11.2,12.62v12.29l0.02,2.56c0,2.78,0.31,2.78,1.08,4.02
				c0,0-2.18,0.19-4.45-0.03c-2.47-0.24-5.05-0.96-5.05-2.93l-0.01-14.38c0-5.03-1.48-7.53-5.39-7.53c-4.57,0-6.52,2.55-6.52,8.77
				v16.06H225.1z M299.16,148.54v-41.4c0.51,0.98,3.09,1.37,5.31,1.54c1.21,0.1,2.34,0.09,3.11,0.09l0.01,35.6
				c0.06,2.96,0.3,5.57,1.07,6.81c0,0-2.17,0.19-4.44-0.03c-0.44-0.04-0.85-0.1-1.27-0.17l-0.28-0.05l-0.23-0.05l-0.36-0.09
				l-0.24-0.06l-0.39-0.12l-0.33-0.12C299.93,149.97,299.29,149.39,299.16,148.54 M296.03,115.77h-8.42v-6.93h8.42V115.77z
				 M287.62,120.52h8.42v30.64h-8.42V120.52z M285.61,131.3h-8.24c-0.54-3.44-2.73-5.27-6.22-5.27c-5.4,0-7.17,5.45-7.17,9.96
				c0,4.38,1.72,9.66,6.99,9.66c3.91,0,6.16-2.49,6.7-6.22h8.12c-1.07,8.12-6.7,12.57-14.76,12.57c-9.24,0-15.47-6.52-15.47-15.71
				c0-9.54,5.69-16.6,15.65-16.6C278.44,119.68,285.08,123.48,285.61,131.3 M168.39,135.87c0,4.86,1.72,9.78,7.41,9.78
				c5.75,0,7.47-4.92,7.47-9.78c0-4.92-1.72-9.84-7.47-9.84C170.11,126.03,168.39,130.95,168.39,135.87 M159.98,135.87
				c0-9.78,6.22-16.18,15.82-16.18c9.66,0,15.89,6.41,15.89,16.18c0,9.72-6.23,16.12-15.89,16.12
				C166.2,151.99,159.98,145.59,159.98,135.87 M157.97,123.07h-9.01c-0.59-4.21-4.62-7.41-9.25-7.41c-8.35,0-11.49,7.11-11.49,14.52
				c0,7.05,3.14,14.17,11.49,14.17c5.69,0,8.89-3.91,9.6-9.48h9.01c-0.95,10.55-8.24,17.31-18.61,17.31
				c-13.1,0-20.8-9.78-20.8-21.99c0-12.57,7.7-22.34,20.8-22.34C149.02,107.83,156.84,113.28,157.97,123.07"/>
			<path class="st0" d="M156.77,96.85c-5.28,0-7-5.27-7-9.66c0-4.51,1.78-9.95,7.17-9.95c3.5,0,5.69,1.84,6.22,5.27h8.24
				c-0.53-7.82-7.17-11.61-14.4-11.61c-9.96,0-15.65,7.05-15.65,16.59c0,9.19,6.23,15.71,15.47,15.71c8.06,0,13.69-4.45,14.76-12.56
				h-8.12C162.94,94.36,160.68,96.85,156.77,96.85z"/>
			<path class="st0" d="M202.34,71.72h-9.96l-10.61,11.02v-22.7h-8.41v42.31h8.41V91.81l3.26-3.14l6.11,9.93
				c0,0,2.01,3.76,8.73,3.76h3.78l-12.86-19.38L202.34,71.72z"/>
			<path class="st0" d="M139.65,71.72h-8.42v16.06c0,6.22-1.96,8.77-6.52,8.77c-3.91,0-5.4-2.49-5.4-7.53V71.72h-8.42v18.85
				c0,7.59,2.25,12.62,11.2,12.62c3.55,0,7.23-1.66,9.54-5.09l0.01,1.34c0,1.59,1.7,2.37,3.67,2.73c2.51,0.5,5.47,0.23,5.47,0.23
				c-0.77-1.24-1.04-4.3-1.13-6.81L139.65,71.72z"/>
			<path class="st0" d="M307.59,95.58l-0.01-1.64V60.08h-8.42l-0.12,15.41c-1.89-3.02-5.45-4.57-9.07-4.57
				c-9.01,0-13.57,7.65-13.57,15.89c0,8.47,4.5,16.42,13.75,16.42c3.63,0,6.86-1.23,9.01-4.06l-0.02,0.27c0,0.1,0.01,0.19,0.02,0.28
				c0.25,1.86,2.99,2.49,5.47,2.68c2.1,0.17,4.02,0,4.02,0C307.89,101.15,307.59,98.37,307.59,95.58z M292.23,96.88
				c-5.22,0-7.41-5.03-7.41-9.84c0-5.03,1.9-9.78,7.41-9.78c5.45,0,7.23,4.74,7.23,9.72C299.47,92.03,297.81,96.88,292.23,96.88z"/>
			<path class="st0" d="M274.92,95.8V83.51c0-7.59-2.25-12.62-11.2-12.62c-3.55,0-7.23,1.66-9.54,5.1v-4.27h-8v30.64h8.41V86.3
				c0-6.22,1.96-8.77,6.52-8.77c3.91,0,5.4,2.49,5.4,7.53l0.01,14.38c0,1.96,2.58,2.68,5.05,2.92c2.27,0.22,4.45,0.03,4.45,0.03
				c-0.77-1.24-1.09-1.24-1.09-4.03L274.92,95.8z"/>
			<path class="st0" d="M243.4,79.6c0-7.34-7.35-8.71-13.46-8.71c-6.88,0-13.93,2.37-14.4,10.25h8.41c0.3-3.32,2.37-4.62,5.57-4.62
				c2.96,0,5.45,0.53,5.45,4.15c0,3.44-4.8,3.26-9.96,4.03c-5.21,0.71-10.43,2.37-10.43,9.31c0,6.28,4.63,9.19,10.43,9.19
				c3.74,0,7.65-1.01,10.32-3.79c0,3.77,9.12,2.96,9.12,2.96c-0.77-1.24-1.07-4.03-1.07-6.81V79.6z M234.98,90.51
				c0,1.84-0.24,7.05-6.81,7.05c-2.73,0-5.16-0.77-5.16-3.91c0-3.08,2.37-3.97,4.98-4.51c2.6-0.47,5.57-0.53,6.99-1.77V90.51z"/>
			<path class="st0" d="M213,60.05h-8.42v39.7c0.13,0.84,0.77,1.43,1.67,1.84l0.29,0.12l0.34,0.13l0.38,0.11l0.24,0.06l0.37,0.09
				l0.23,0.05l0.29,0.05c0.4,0.07,0.82,0.13,1.27,0.17c2.26,0.22,4.43,0.03,4.43,0.03c-0.77-1.24-1.01-3.86-1.07-6.81L213,60.05z"/>
			<g>
				<path id="XMLID_123_" class="st0" d="M98.05,175.31l0.07-10.1h1.6l0,1.52c0.65-1.13,1.89-1.76,3.27-1.76
					c1.9,0,2.98,0.82,3.35,2.6c0.09,0.43,0.13,1.19,0.11,1.97l-0.04,4.15c0,0.98,0.16,1.62,0.16,1.62h-0.42
					c-1.21,0-1.38-0.91-1.4-1.32l0.07-4.58c0-0.37-0.01-1.21-0.09-1.57c-0.2-0.96-1.07-1.4-2.05-1.4c-0.92,0-1.77,0.51-2.26,1.17
					c-0.49,0.51-0.64,1.31-0.69,2.11l-0.03,5.59H98.05z"/>
				<path class="st0" d="M59.84,171.99c-0.23,0.68-1.13,3.58-4.52,3.58c-2.97,0-4.9-2.02-4.9-5.39c0-3.78,2.72-5.22,4.84-5.22
					c1.85,0,3.8,1.02,4.4,3.55c0.19,0.85,0.19,1.61,0.19,2.04h-7.6c-0.04,1.68,0.85,3.76,3.23,3.76c1.51,0,2.36-1,2.65-2.34
					L59.84,171.99z M57.99,169.33c-0.15-2.63-2.04-3.08-2.87-3.08c-1.44,0-2.65,1.06-2.84,3.08H57.99z"/>
				<path class="st0" d="M71.4,168.49l-1.96,1.98v4.83H67.6v-13.85h1.84v6.77l6.57-6.77h2.28l-5.61,5.73L71.4,168.49z M72.68,167.17
					l5.16,8.13h-0.36c-1.57,0-2.41-0.75-2.41-0.75l-3.67-6.07"/>
				<path class="st0" d="M133.87,165.16v1.85c0.97-1.92,2.8-1.96,3.49-1.98v1.85c-0.22-0.02-0.43-0.04-0.71-0.04
					c-0.99,0-1.85,0.39-2.35,1.21c-0.45,0.75-0.43,1.64-0.43,2.56v4.69h-1.72v-10.14H133.87z"/>
				<path class="st0" d="M201.17,173.69v-4.14v0v-0.49c0-0.99-0.02-1.67-0.27-2.28c-0.4-0.97-1.5-1.73-2.73-1.73
					c-1.48,0-2.45,0.97-3.32,1.84c-0.46-0.78-1.08-1.84-2.71-1.84c-0.74,0-1.78,0.23-2.98,1.65v-1.33h-1.65v4.01v4.78
					c0.02,0.41,0.13,1.14,1.33,1.14h0.41c0,0-0.08-0.62-0.08-1.59l-0.01-4.29c0-0.89,0-1.44,0.66-2.03
					c0.53-0.47,1.23-0.74,1.86-0.74c0.74,0,1.23,0.36,1.46,0.68c0.38,0.51,0.38,1.21,0.38,1.59v0.54l0,0l0.02,4.78
					c0.02,0.41,0.13,1.07,1.33,1.07h0.41c0,0-0.08-0.62-0.08-1.59c0,0-0.03-4.22-0.03-4.33c0.01-0.95,0.1-1.38,0.59-1.89
					c0.49-0.51,1.25-0.85,1.95-0.85c0.36,0,1.42,0.11,1.73,1.25c0.09,0.34,0.09,0.64,0.09,1.55l0,0l-0.02,4.71
					c0.02,0.41,0.13,1.14,1.33,1.14h0.41C201.26,175.27,201.18,174.65,201.17,173.69z"/>
				<path class="st0" d="M244.44,173.68l0.02-4.32l0,0v-7.93h-2.37l-4.28,10.88l-4.26-10.88h-2.37v7.92v0v4.78
					c0.02,0.41,0.19,1.14,1.33,1.14l0.57,0.02c0,0-0.12-0.63-0.12-1.6l-0.07-4.33h0l-0.09-5.5l3.81,10.15h0
					c0.14,0.38,0.39,1.21,1.6,1.29l0.24,0.02l0.59-1.54l-0.01,0l3.87-10.1l-0.12,5.69h0l-0.1,4.76c0.02,0.41,0.31,1.14,1.33,1.14
					l0.57,0.02C244.56,175.28,244.44,174.65,244.44,173.68z"/>
				<path id="XMLID_119_" class="st0" d="M84.38,172.61c-0.37,0.91-1.21,1.38-2.46,1.44c-0.91,0.04-1.87-0.37-2.07-1.3
					c-0.28-1.27,0.66-1.69,1.78-1.92c1.14-0.21,2.39-0.37,3.04-0.83C84.64,170.95,84.75,171.83,84.38,172.61 M86.28,173.36
					c-0.1-0.46-0.04-1.03-0.05-1.44l0.02-2.74c-0.01-0.54,0.02-1.27-0.1-1.83c-0.45-2.02-2.26-2.46-4.16-2.37
					c-2.09,0.1-3.7,1.21-3.53,3.44l1.62-0.08c-0.1-1.3,1-1.86,2.24-1.92c0.86-0.04,2.03,0.13,2.27,1.22c0.3,1.33-0.44,1.46-2.11,1.7
					c-2.12,0.3-4.87,0.62-4.23,3.51c0.46,2.04,2,2.75,3.63,2.67c1.65-0.08,2.49-0.64,3.01-1.57c0.1,0.87,0.69,1.39,1.58,1.35
					c1.08-0.05,0.91-1.51,0.91-1.51c-0.14,0.07-0.33,0.15-0.48,0.16C86.62,173.96,86.38,173.82,86.28,173.36"/>
				<path id="XMLID_118_" class="st0" d="M96.21,165.14l-0.01,8.59c0,0.89,0.17,1.53,0.17,1.53l-0.41,0
					c-1.47,0.01-1.33-1.52-1.33-1.52c-0.63,1.14-1.84,1.77-3.2,1.78c-1.86,0.01-2.93-0.81-3.3-2.58c-0.09-0.43-0.13-1.19-0.12-1.98
					l0.02-5.78l1.63-0.01l-0.05,5.91c0,0.37,0.02,1.21,0.09,1.57c0.2,0.96,1.06,1.4,2.02,1.4c1.8-0.01,2.87-1.62,2.87-3.3l0-5.6
					L96.21,165.14z"/>
				<g>
					<polygon id="XMLID_117_" class="st0" points="108.23,161.44 108.22,163.46 109.89,163.46 109.89,161.44 					"/>
					<polygon id="XMLID_116_" class="st0" points="108.21,175.27 108.23,165.26 109.87,165.26 109.85,175.27 					"/>
				</g>
				<path id="XMLID_113_" class="st0" d="M144,172.61c-0.37,0.91-1.21,1.38-2.46,1.44c-0.91,0.04-1.87-0.37-2.07-1.3
					c-0.28-1.27,0.66-1.69,1.78-1.92c1.14-0.21,2.39-0.37,3.04-0.83C144.26,170.95,144.36,171.83,144,172.61 M145.89,173.36
					c-0.1-0.46-0.04-1.03-0.05-1.44l0.02-2.74c-0.01-0.54,0.02-1.27-0.1-1.83c-0.45-2.02-2.26-2.46-4.16-2.37
					c-2.09,0.1-3.7,1.21-3.53,3.44l1.62-0.08c-0.1-1.3,1-1.86,2.24-1.92c0.86-0.04,2.03,0.13,2.27,1.22c0.3,1.33-0.44,1.46-2.11,1.7
					c-2.12,0.3-4.87,0.62-4.23,3.51c0.46,2.04,2,2.75,3.63,2.67c1.65-0.08,2.49-0.64,3.01-1.57c0.1,0.87,0.69,1.39,1.58,1.35
					c1.08-0.05,0.91-1.51,0.91-1.51c-0.14,0.07-0.33,0.15-0.48,0.16C146.24,173.96,146,173.82,145.89,173.36"/>
				<path class="st0" d="M159.09,175.68c-3.46,0-4.92-2.59-4.92-5.21c0-2.23,1.1-5.38,4.98-5.38c3.31,0,4.83,2.56,4.81,5.3
					C163.95,173.41,162.15,175.68,159.09,175.68z M162.02,168.98c-0.38-1.97-1.68-2.54-2.82-2.54c-2.27,0-3.18,1.76-3.18,4.05
					c0,2.1,0.87,3.84,3.05,3.84c2.82,0,3.03-2.92,3.05-3.94C162.15,169.74,162.08,169.28,162.02,168.98z"/>
				<g>
					<path class="st0" d="M183.62,162.64c0,0-0.16,1.22-0.89,1.22h-2.4c-0.84,0-0.48-1.22-0.48-1.22H183.62z"/>
					<path id="XMLID_110_" class="st0" d="M183.52,172.61c-0.37,0.91-1.21,1.38-2.46,1.44c-0.91,0.04-1.87-0.37-2.07-1.3
						c-0.28-1.27,0.66-1.69,1.78-1.92c1.14-0.21,2.39-0.37,3.04-0.83C183.78,170.95,183.88,171.83,183.52,172.61 M185.41,173.36
						c-0.1-0.46-0.04-1.03-0.05-1.44l0.02-2.74c-0.01-0.54,0.02-1.27-0.1-1.83c-0.45-2.02-2.26-2.46-4.16-2.37
						c-2.09,0.1-3.7,1.21-3.53,3.44l1.62-0.08c-0.1-1.3,1-1.86,2.24-1.92c0.86-0.04,2.03,0.13,2.27,1.22
						c0.3,1.33-0.44,1.46-2.11,1.7c-2.12,0.3-4.87,0.62-4.23,3.51c0.46,2.04,2,2.75,3.63,2.67c1.65-0.08,2.49-0.64,3.01-1.57
						c0.1,0.87,0.69,1.39,1.58,1.35c1.08-0.05,0.91-1.51,0.91-1.51c-0.14,0.07-0.33,0.15-0.48,0.16
						C185.76,173.96,185.51,173.82,185.41,173.36"/>
				</g>
				<g>
					<polygon id="XMLID_109_" class="st0" points="222.04,161.44 222.03,163.46 223.69,163.46 223.7,161.44 					"/>
					<polygon id="XMLID_108_" class="st0" points="222.01,175.27 222.03,165.26 223.68,165.26 223.66,175.27 					"/>
				</g>
				<g>
					<path id="XMLID_105_" class="st0" d="M208.85,172.61c-0.37,0.91-1.21,1.38-2.46,1.44c-0.91,0.04-1.87-0.37-2.07-1.3
						c-0.28-1.27,0.66-1.69,1.78-1.92c1.14-0.21,2.39-0.37,3.04-0.83C209.11,170.95,209.21,171.83,208.85,172.61 M210.74,173.36
						c-0.1-0.46-0.04-1.03-0.05-1.44l0.02-2.74c-0.01-0.54,0.02-1.27-0.1-1.83c-0.45-2.02-2.26-2.46-4.16-2.37
						c-2.09,0.1-3.7,1.21-3.53,3.44l1.62-0.08c-0.1-1.3,1-1.86,2.24-1.92c0.86-0.04,2.03,0.13,2.27,1.22
						c0.3,1.33-0.44,1.46-2.11,1.7c-2.12,0.3-4.87,0.62-4.23,3.51c0.46,2.04,2,2.75,3.63,2.67c1.65-0.08,2.49-0.64,3.01-1.57
						c0.1,0.87,0.69,1.39,1.58,1.35c1.08-0.05,0.91-1.51,0.91-1.51c-0.14,0.07-0.33,0.15-0.48,0.16
						C211.09,173.96,210.85,173.82,210.74,173.36"/>
				</g>
				<path id="XMLID_104_" class="st0" d="M212.84,175.24l-0.01-13.83h1.64l-0.01,8.14l4.17-4.32h2.15l-3.57,3.7l3.9,6.42h-0.36
					c-1.57,0-2-0.9-2-0.9l-2.65-4.54l-1.6,1.76l0,3.56H212.84z"/>
				<g>
					<path id="XMLID_101_" class="st0" d="M252.28,172.61c-0.37,0.91-1.21,1.38-2.46,1.44c-0.91,0.04-1.87-0.37-2.07-1.3
						c-0.28-1.27,0.66-1.69,1.78-1.92c1.14-0.21,2.39-0.37,3.04-0.83C252.54,170.95,252.65,171.83,252.28,172.61 M254.18,173.36
						c-0.1-0.46-0.04-1.03-0.05-1.44l0.02-2.74c-0.01-0.54,0.02-1.27-0.1-1.83c-0.45-2.02-2.26-2.46-4.16-2.37
						c-2.09,0.1-3.7,1.21-3.53,3.44l1.62-0.08c-0.1-1.3,1-1.86,2.24-1.92c0.86-0.04,2.03,0.13,2.27,1.22
						c0.3,1.33-0.44,1.46-2.11,1.7c-2.12,0.3-4.87,0.62-4.23,3.51c0.46,2.04,2,2.75,3.63,2.67c1.65-0.08,2.49-0.64,3.01-1.57
						c0.1,0.87,0.69,1.39,1.58,1.35c1.08-0.05,0.91-1.51,0.91-1.51c-0.14,0.07-0.33,0.15-0.48,0.16
						C254.53,173.96,254.28,173.82,254.18,173.36"/>
				</g>
				<path id="XMLID_100_" class="st0" d="M256.13,175.24l-0.01-13.83h1.64l-0.01,8.14l4.17-4.32h2.15l-3.57,3.7l3.9,6.42h-0.36
					c-1.57,0-2-0.9-2-0.9l-2.65-4.54l-1.6,1.76l0,3.56H256.13z"/>
				<path id="XMLID_97_" class="st0" d="M270.8,172.61c-0.37,0.91-1.21,1.38-2.46,1.44c-0.91,0.04-1.87-0.37-2.07-1.3
					c-0.28-1.27,0.66-1.69,1.78-1.92c1.14-0.21,2.39-0.37,3.04-0.83C271.05,170.95,271.16,171.83,270.8,172.61 M272.69,173.36
					c-0.1-0.46-0.04-1.03-0.05-1.44l0.02-2.74c-0.01-0.54,0.02-1.27-0.1-1.83c-0.45-2.02-2.26-2.46-4.16-2.37
					c-2.09,0.1-3.7,1.21-3.53,3.44l1.62-0.08c-0.1-1.3,1-1.86,2.24-1.92c0.86-0.04,2.03,0.13,2.27,1.22c0.3,1.33-0.44,1.46-2.11,1.7
					c-2.12,0.3-4.87,0.62-4.23,3.51c0.46,2.04,2,2.75,3.63,2.67c1.65-0.08,2.49-0.64,3.01-1.57c0.1,0.87,0.69,1.39,1.58,1.35
					c1.08-0.05,0.91-1.51,0.91-1.51c-0.14,0.07-0.33,0.15-0.48,0.16C273.04,173.96,272.79,173.82,272.69,173.36"/>
				<path id="XMLID_96_" class="st0" d="M282.82,165.14l-0.01,8.59c0,0.89,0.17,1.53,0.17,1.53l-0.41,0
					c-1.47,0.01-1.33-1.52-1.33-1.52c-0.63,1.14-1.84,1.77-3.2,1.78c-1.86,0.01-2.93-0.81-3.3-2.58c-0.09-0.43-0.13-1.19-0.12-1.98
					l0.02-5.78l1.63-0.01l-0.05,5.91c0,0.37,0.02,1.21,0.09,1.57c0.2,0.96,1.06,1.4,2.02,1.4c1.8-0.01,2.87-1.62,2.87-3.3l0-5.6
					L282.82,165.14z"/>
				<path id="XMLID_93_" class="st0" d="M296.46,172.61c-0.37,0.91-1.21,1.38-2.46,1.44c-0.91,0.04-1.87-0.37-2.07-1.3
					c-0.28-1.27,0.66-1.69,1.78-1.92c1.14-0.21,2.39-0.37,3.04-0.83C296.72,170.95,296.82,171.83,296.46,172.61 M298.35,173.36
					c-0.1-0.46-0.04-1.03-0.05-1.44l0.02-2.74c-0.01-0.54,0.02-1.27-0.1-1.83c-0.45-2.02-2.26-2.46-4.16-2.37
					c-2.09,0.1-3.7,1.21-3.53,3.44l1.62-0.08c-0.1-1.3,1-1.86,2.24-1.92c0.86-0.04,2.03,0.13,2.27,1.22c0.3,1.33-0.44,1.46-2.11,1.7
					c-2.12,0.3-4.87,0.62-4.23,3.51c0.46,2.04,2,2.75,3.63,2.67c1.65-0.08,2.49-0.64,3.01-1.57c0.1,0.87,0.69,1.39,1.58,1.35
					c1.08-0.05,0.91-1.51,0.91-1.51c-0.14,0.07-0.33,0.15-0.48,0.16C298.7,173.96,298.46,173.82,298.35,173.36"/>
				<path id="XMLID_92_" class="st0" d="M308.51,165.14l-0.01,8.59c0,0.89,0.17,1.53,0.17,1.53l-0.41,0
					c-1.47,0.01-1.33-1.52-1.33-1.52c-0.63,1.14-1.84,1.77-3.2,1.78c-1.86,0.01-2.93-0.81-3.3-2.58c-0.09-0.43-0.13-1.19-0.12-1.98
					l0.02-5.78l1.63-0.01l-0.05,5.91c0,0.37,0.02,1.21,0.09,1.57c0.2,0.96,1.06,1.4,2.02,1.4c1.8-0.01,2.87-1.62,2.87-3.3l0-5.6
					L308.51,165.14z"/>
				<path id="XMLID_91_" class="st0" d="M52.49,163.05l-4.33-0.02l-0.02,10.65c0.01,0.97,0.21,1.61,0.21,1.61H47.9
					c-1.19,0-1.37-0.9-1.39-1.32l-0.02-10.94l-4.16,0.02v-1.63h10.16V163.05z"/>
				<path class="st0" d="M130.65,172.11c-0.23,0.68-1.13,3.58-4.52,3.58c-2.97,0-4.9-2.02-4.9-5.39c0-3.78,2.72-5.22,4.84-5.22
					c1.85,0,3.8,1.02,4.4,3.55c0.19,0.85,0.19,1.61,0.19,2.04h-7.6c-0.04,1.68,0.85,3.76,3.23,3.76c1.51,0,2.36-1,2.65-2.34
					L130.65,172.11z M128.81,169.45c-0.15-2.63-2.04-3.08-2.87-3.08c-1.44,0-2.65,1.06-2.84,3.08H128.81z"/>
				<path id="XMLID_90_" class="st0" d="M111.62,175.31l0.07-13.88h1.59l0,5.38c0.64-1.12,1.87-1.74,3.25-1.74
					c1.88,0,2.96,0.81,3.32,2.58c0.09,0.43,0.12,1.18,0.11,1.95l-0.04,4.12c0,0.97,0.16,1.6,0.16,1.6h-0.41
					c-1.2,0-1.37-0.9-1.39-1.31l0.07-4.54c0-0.37-0.01-1.2-0.08-1.55c-0.19-0.95-1.06-1.39-2.03-1.39c-0.91,0-1.76,0.5-2.24,1.16
					c-0.48,0.5-0.63,1.29-0.68,2.09l-0.03,5.54H111.62z"/>
				<path id="XMLID_89_" class="st0" d="M178.29,163.05l-4.33-0.02l-0.02,10.65c0.01,0.97,0.21,1.61,0.21,1.61h-0.45
					c-1.19,0-1.37-0.9-1.39-1.32l-0.02-10.94l-4.16,0.02v-1.63h10.16V163.05z"/>
				<path class="st0" d="M286.21,165.16v1.85c0.97-1.92,2.8-1.96,3.49-1.98v1.85c-0.22-0.02-0.43-0.04-0.71-0.04
					c-0.99,0-1.85,0.39-2.35,1.21c-0.45,0.75-0.43,1.64-0.43,2.56v4.69h-1.72v-10.14H286.21z"/>
			</g>
			<path id="XMLID_5_" class="st0" d="M90.77,70.43h0.12l5.31,15.45H85.29L90.77,70.43z M70.19,102.15h9.38l3.31-9.37h15.75
				c0,0,1.71,5.26,2.38,6.99c1.38,3.63,10.42,2.38,10.42,2.38L95.67,60.04h-9.5L70.19,102.15z"/>
		</g>
	</g>
</g>
</svg>
