<svg xmlns="http://www.w3.org/2000/svg" viewBox="0 0 165 48"><path d="M67.15 24.16h-5.54v3.49h6.54v2.71H58.09V15.75h10.08v2.72h-6.56v3.08h5.54v2.61zm6.77 3.79c.47 0 .84-.13 1.1-.39.26-.26.39-.62.38-1.08h3.17c0 1.19-.43 2.17-1.28 2.93-.85.76-1.95 1.14-3.29 1.14-1.58 0-2.82-.49-3.73-1.49-.91-.99-1.36-2.36-1.36-4.11v-.14c0-1.1.2-2.06.61-2.9.4-.84.99-1.49 1.75-1.94.76-.45 1.67-.68 2.71-.68 1.41 0 2.53.39 3.36 1.17.83.78 1.24 1.84 1.24 3.18h-3.17c0-.56-.14-.99-.41-1.29-.27-.3-.64-.45-1.1-.45-.88 0-1.39.56-1.54 1.67-.05.35-.07.84-.07 1.47 0 1.09.13 1.85.39 2.27.26.43.67.64 1.24.64zm5.54-3.12c0-1.08.21-2.05.63-2.9.42-.84 1.03-1.5 1.82-1.95.79-.46 1.71-.68 2.78-.68 1.63 0 2.91.5 3.84 1.51.94 1.01 1.4 2.38 1.4 4.11v.12c0 1.69-.47 3.03-1.41 4.03-.94.99-2.21 1.49-3.82 1.49-1.54 0-2.79-.46-3.72-1.39-.94-.93-1.44-2.18-1.52-3.77v-.57zm3.38.21c0 1 .16 1.74.47 2.21.31.47.78.7 1.39.7 1.2 0 1.82-.93 1.85-2.78v-.34c0-1.95-.62-2.92-1.86-2.92-1.13 0-1.74.84-1.84 2.52l-.01.61zm13.34-9.29l3.26 10.16 3.25-10.16h4.64v14.61h-3.53v-3.41l.34-6.98-3.53 10.4h-2.33l-3.54-10.4.34 6.99v3.41h-3.52V15.75h4.62zm19.35 14.61c-.12-.22-.23-.55-.32-.97-.62.78-1.49 1.17-2.61 1.17-1.02 0-1.89-.31-2.61-.93-.71-.62-1.07-1.4-1.07-2.33 0-1.18.44-2.07 1.31-2.67.87-.6 2.13-.9 3.79-.9h1.04v-.57c0-1-.43-1.5-1.29-1.5-.8 0-1.21.4-1.21 1.19h-3.38c0-1.05.45-1.9 1.34-2.56.89-.65 2.03-.98 3.42-.98 1.39 0 2.48.34 3.28 1.01.8.68 1.21 1.6 1.23 2.78v4.81c.01 1 .17 1.76.46 2.29v.17c0-.01-3.38-.01-3.38-.01zm-2.12-2.21c.42 0 .77-.09 1.05-.27.28-.18.48-.39.6-.61v-1.74h-.98c-1.18 0-1.76.53-1.76 1.59 0 .31.1.56.31.75.2.19.46.28.78.28zm10.67-11.34v2.7h1.79v2.35h-1.79v4.97c0 .41.07.69.22.85.15.16.44.24.87.24.33 0 .62-.02.84-.06v2.42c-.61.19-1.24.29-1.91.29-1.16 0-2.02-.27-2.58-.82-.56-.55-.83-1.38-.83-2.5v-5.39h-1.39V19.5h1.39v-2.7h3.39zm7.21 0v2.7h1.79v2.35h-1.79v4.97c0 .41.07.69.22.85.15.16.44.24.87.24.33 0 .62-.02.84-.06v2.42c-.61.19-1.24.29-1.91.29-1.16 0-2.02-.27-2.58-.82-.55-.55-.83-1.38-.83-2.5v-5.39h-1.38V19.5h1.38v-2.7h3.39zm8.13 13.75c-1.67 0-3.01-.5-4.04-1.49-1.03-.99-1.54-2.28-1.54-3.88v-.28c0-1.11.21-2.09.62-2.94.41-.85 1.01-1.51 1.8-1.97.79-.47 1.73-.7 2.81-.7 1.52 0 2.73.47 3.61 1.42.88.95 1.32 2.27 1.32 3.96V26h-6.72c.12.61.38 1.09.79 1.44.41.35.94.52 1.59.52 1.07 0 1.9-.38 2.51-1.12l1.54 1.83c-.42.58-1.02 1.05-1.79 1.39-.78.33-1.61.5-2.5.5zm-.39-8.65c-.99 0-1.58.66-1.76 1.97h3.41v-.26c.01-.54-.12-.96-.41-1.26-.29-.3-.7-.45-1.24-.45zm12.86.66l-1.11-.08c-1.06 0-1.75.33-2.05 1v6.87h-3.38V19.5h3.17l.11 1.4c.57-1.06 1.36-1.6 2.38-1.6.36 0 .68.04.94.12l-.06 3.15zm6.83 4.74c0-.29-.15-.52-.45-.69-.3-.17-.87-.35-1.71-.54-.84-.19-1.54-.43-2.09-.74-.55-.3-.97-.67-1.25-1.11-.29-.43-.43-.93-.43-1.49 0-1 .41-1.82 1.23-2.46.82-.65 1.9-.97 3.23-.97 1.43 0 2.58.33 3.45.97.87.65 1.3 1.5 1.3 2.56h-3.39c0-.87-.46-1.31-1.38-1.31-.36 0-.65.1-.9.3s-.36.44-.36.74.15.54.44.73c.29.19.76.34 1.41.46.65.12 1.21.26 1.7.43 1.63.56 2.45 1.57 2.45 3.02 0 .99-.44 1.8-1.32 2.42-.88.62-2.02.93-3.42.93-.93 0-1.76-.17-2.49-.5-.73-.33-1.3-.79-1.71-1.36-.41-.57-.61-1.18-.61-1.81h3.16c.01.5.18.87.5 1.1.32.23.73.35 1.24.35.46 0 .81-.09 1.04-.28.24-.21.36-.45.36-.75z" fill="#fff"/><path d="M24 45.74c2.13-7.96 19.26-12.92 22.23-24.83C50.96 1.97 28.2-4.86 24 9.77" fill="#39b54a"/><path d="M24 45.74C21.88 37.79 4.74 32.82 1.77 20.91-2.95 1.97 19.81-4.86 24 9.77" fill="#009444"/></svg>