<svg data-name="Layer 1" xmlns="http://www.w3.org/2000/svg" viewBox="0 0 165 45"><path d="M67.72 22.86H62v3.58h6.71v2.78H58.42v-15h10.35V17H62v3.16h5.68v2.67zm6.94 3.89a1.55 1.55 0 001.13-.39 1.45 1.45 0 00.39-1.11h3.26a3.86 3.86 0 01-1.32 3 4.88 4.88 0 01-3.38 1.17 5 5 0 01-3.83-1.52 6 6 0 01-1.39-4.22v-.15a6.76 6.76 0 01.62-3 4.48 4.48 0 011.79-2 5.32 5.32 0 012.78-.7 4.79 4.79 0 013.45 1.21 4.27 4.27 0 011.28 3.26h-3.26a1.91 1.91 0 00-.42-1.3 1.45 1.45 0 00-1.13-.46c-.9 0-1.43.57-1.58 1.72a13.92 13.92 0 00-.07 1.5 4.82 4.82 0 00.4 2.32 1.39 1.39 0 001.28.67zm5.68-3.2a6.62 6.62 0 01.65-3 4.67 4.67 0 011.86-2 5.58 5.58 0 012.85-.7 5.12 5.12 0 013.94 1.55 5.9 5.9 0 011.45 4.21v.13a5.79 5.79 0 01-1.45 4.13 5.13 5.13 0 01-3.92 1.53 5.18 5.18 0 01-3.81-1.4 5.56 5.56 0 01-1.56-3.86zm3.47.22A4.05 4.05 0 0084.3 26a1.59 1.59 0 001.42.72c1.24 0 1.87-.95 1.9-2.85v-.35c0-2-.64-3-1.91-3s-1.79.86-1.89 2.58zm13.68-9.53l3.35 10.42 3.33-10.42h4.75v15h-3.62v-3.5l.35-7.16L102 29.22h-2.36L96 18.55l.35 7.17v3.5h-3.6v-15zm19.85 14.98a3.41 3.41 0 01-.33-1 3.21 3.21 0 01-2.68 1.21 4 4 0 01-2.67-.95 3 3 0 01-1.1-2.4 3.07 3.07 0 011.34-2.73 6.77 6.77 0 013.89-.93h1.07v-.59c0-1-.45-1.54-1.33-1.54a1.09 1.09 0 00-1.24 1.22h-3.47a3.1 3.1 0 011.38-2.62 5.78 5.78 0 013.5-1 5.09 5.09 0 013.37 1 3.61 3.61 0 011.26 2.85v4.96a5.16 5.16 0 00.48 2.35v.17zM115.17 27a1.87 1.87 0 001.07-.28 1.77 1.77 0 00.62-.63v-1.82h-1c-1.21 0-1.81.55-1.81 1.63a1 1 0 00.31.77 1.21 1.21 0 00.81.33zm10.94-11.68v2.77h1.83v2.41h-1.83v5.09a1.28 1.28 0 00.23.87 1.18 1.18 0 00.89.25 5.22 5.22 0 00.87-.06v2.48a6.42 6.42 0 01-2 .3 3.6 3.6 0 01-2.64-.85 3.44 3.44 0 01-.86-2.56V20.5h-1.42v-2.41h1.42v-2.77zm7.39 0v2.77h1.83v2.41h-1.83v5.09a1.28 1.28 0 00.23.87 1.18 1.18 0 00.89.25 5.22 5.22 0 00.87-.06v2.48a6.42 6.42 0 01-2 .3 3.6 3.6 0 01-2.64-.85A3.44 3.44 0 01130 26v-5.5h-1.42v-2.41H130v-2.77zm8.34 14.11a5.73 5.73 0 01-4.15-1.53 5.26 5.26 0 01-1.59-4v-.29a6.73 6.73 0 01.64-3 4.63 4.63 0 011.84-2 5.56 5.56 0 012.89-.72 4.83 4.83 0 013.7 1.46 5.7 5.7 0 011.36 4.06v1.34h-6.9a2.55 2.55 0 00.82 1.48 2.38 2.38 0 001.62.53 3.12 3.12 0 002.58-1.15l1.58 1.87a4.34 4.34 0 01-1.84 1.43 6.23 6.23 0 01-2.55.52zm-.4-8.87c-1 0-1.61.67-1.81 2h3.5v-.26a1.73 1.73 0 00-.42-1.3 1.7 1.7 0 00-1.27-.44zm13.19.67l-1.14-.09a2.06 2.06 0 00-2.1 1v7h-3.47V18.09h3.25l.12 1.43a2.68 2.68 0 012.44-1.64 3.4 3.4 0 011 .12zm7.01 4.86a.81.81 0 00-.47-.71 7.16 7.16 0 00-1.76-.55 8.17 8.17 0 01-2.14-.76 3.56 3.56 0 01-1.27-1.13 2.7 2.7 0 01-.45-1.54 3.05 3.05 0 011.27-2.52 5.16 5.16 0 013.31-1 5.81 5.81 0 013.54 1 3.14 3.14 0 011.33 2.63h-3.48c0-.9-.47-1.34-1.41-1.34a1.43 1.43 0 00-.92.3 1 1 0 00-.37.76.87.87 0 00.46.75 4.22 4.22 0 001.44.47 13.48 13.48 0 011.75.44c1.67.58 2.51 1.61 2.51 3.1a2.9 2.9 0 01-1.35 2.48 5.94 5.94 0 01-3.51 1 6.11 6.11 0 01-2.55-.51 4.32 4.32 0 01-1.75-1.4 3.19 3.19 0 01-.63-1.87h3.24a1.36 1.36 0 00.52 1.13 2.09 2.09 0 001.26.36 1.69 1.69 0 001.07-.29.94.94 0 00.36-.8z"/><path d="M23.46 45c2.19-8.16 19.76-13.25 22.8-25.47C51.11.1 27.76-6.9 23.46 8.1" fill="#39b54a"/><path d="M23.46 45C21.28 36.84 3.71 31.75.66 19.53-4.18.1 19.16-6.9 23.46 8.1" fill="#009444"/></svg>