<svg id="Layer_1" data-name="Layer 1" xmlns="http://www.w3.org/2000/svg" viewBox="0 0 165 45"><defs><style>.cls-1{fill:#39b54a;}.cls-2{fill:#009444;}</style></defs><path d="M67.72,22.86H62v3.58h6.71v2.78H58.42v-15H68.77V17H62v3.16h5.68v2.67Z"/><path d="M74.66,26.75a1.55,1.55,0,0,0,1.13-.39,1.45,1.45,0,0,0,.39-1.11h3.26a3.86,3.86,0,0,1-1.32,3,4.88,4.88,0,0,1-3.38,1.17,5,5,0,0,1-3.83-1.52,6,6,0,0,1-1.39-4.22v-.15a6.76,6.76,0,0,1,.62-3,4.48,4.48,0,0,1,1.79-2,5.32,5.32,0,0,1,2.78-.7,4.79,4.79,0,0,1,3.45,1.21,4.27,4.27,0,0,1,1.28,3.26H76.18A1.91,1.91,0,0,0,75.76,21a1.45,1.45,0,0,0-1.13-.46c-.9,0-1.43.57-1.58,1.72a13.92,13.92,0,0,0-.07,1.5,4.82,4.82,0,0,0,.4,2.32A1.39,1.39,0,0,0,74.66,26.75Z"/><path d="M80.34,23.55a6.62,6.62,0,0,1,.65-3,4.67,4.67,0,0,1,1.86-2,5.58,5.58,0,0,1,2.85-.7,5.12,5.12,0,0,1,3.94,1.55,5.9,5.9,0,0,1,1.45,4.21v.13a5.79,5.79,0,0,1-1.45,4.13,5.13,5.13,0,0,1-3.92,1.53A5.18,5.18,0,0,1,81.91,28a5.56,5.56,0,0,1-1.56-3.86Zm3.47.22A4.05,4.05,0,0,0,84.3,26a1.59,1.59,0,0,0,1.42.72c1.24,0,1.87-.95,1.9-2.85v-.35c0-2-.64-3-1.91-3s-1.79.86-1.89,2.58Z"/><path d="M97.49,14.24l3.35,10.42,3.33-10.42h4.75v15H105.3v-3.5l.35-7.16L102,29.22H99.64L96,18.55l.35,7.17v3.5H92.75v-15Z"/><path d="M117.34,29.22a3.41,3.41,0,0,1-.33-1,3.21,3.21,0,0,1-2.68,1.21,4,4,0,0,1-2.67-.95,3,3,0,0,1-1.1-2.4,3.07,3.07,0,0,1,1.34-2.73,6.77,6.77,0,0,1,3.89-.93h1.07v-.59c0-1-.45-1.54-1.33-1.54a1.09,1.09,0,0,0-1.24,1.22h-3.47a3.1,3.1,0,0,1,1.38-2.62,5.78,5.78,0,0,1,3.5-1,5.09,5.09,0,0,1,3.37,1,3.61,3.61,0,0,1,1.26,2.85V26.7a5.16,5.16,0,0,0,.48,2.35v.17ZM115.17,27a1.87,1.87,0,0,0,1.07-.28,1.77,1.77,0,0,0,.62-.63V24.27h-1c-1.21,0-1.81.55-1.81,1.63a1,1,0,0,0,.31.77A1.21,1.21,0,0,0,115.17,27Z"/><path d="M126.11,15.32v2.77h1.83V20.5h-1.83v5.09a1.28,1.28,0,0,0,.23.87,1.18,1.18,0,0,0,.89.25,5.22,5.22,0,0,0,.87-.06v2.48a6.42,6.42,0,0,1-2,.3,3.6,3.6,0,0,1-2.64-.85,3.44,3.44,0,0,1-.86-2.56V20.5h-1.42V18.09h1.42V15.32Z"/><path d="M133.5,15.32v2.77h1.83V20.5H133.5v5.09a1.28,1.28,0,0,0,.23.87,1.18,1.18,0,0,0,.89.25,5.22,5.22,0,0,0,.87-.06v2.48a6.42,6.42,0,0,1-2,.3,3.6,3.6,0,0,1-2.64-.85A3.44,3.44,0,0,1,130,26V20.5h-1.42V18.09H130V15.32Z"/><path d="M141.84,29.43a5.73,5.73,0,0,1-4.15-1.53,5.26,5.26,0,0,1-1.59-4v-.29a6.73,6.73,0,0,1,.64-3,4.63,4.63,0,0,1,1.84-2,5.56,5.56,0,0,1,2.89-.72,4.83,4.83,0,0,1,3.7,1.46,5.7,5.7,0,0,1,1.36,4.06v1.34h-6.9a2.55,2.55,0,0,0,.82,1.48,2.38,2.38,0,0,0,1.62.53,3.12,3.12,0,0,0,2.58-1.15l1.58,1.87a4.34,4.34,0,0,1-1.84,1.43A6.23,6.23,0,0,1,141.84,29.43Zm-.4-8.87c-1,0-1.61.67-1.81,2h3.5v-.26a1.73,1.73,0,0,0-.42-1.3A1.7,1.7,0,0,0,141.44,20.56Z"/><path d="M154.63,21.23l-1.14-.09a2.06,2.06,0,0,0-2.1,1v7h-3.47V18.09h3.25l.12,1.43a2.68,2.68,0,0,1,2.44-1.64,3.4,3.4,0,0,1,1,.12Z"/><path d="M161.64,26.09a.81.81,0,0,0-.47-.71,7.16,7.16,0,0,0-1.76-.55,8.17,8.17,0,0,1-2.14-.76A3.56,3.56,0,0,1,156,22.94a2.7,2.7,0,0,1-.45-1.54,3.05,3.05,0,0,1,1.27-2.52,5.16,5.16,0,0,1,3.31-1,5.81,5.81,0,0,1,3.54,1A3.14,3.14,0,0,1,165,21.51h-3.48c0-.9-.47-1.34-1.41-1.34a1.43,1.43,0,0,0-.92.3,1,1,0,0,0-.37.76.87.87,0,0,0,.46.75,4.22,4.22,0,0,0,1.44.47,13.48,13.48,0,0,1,1.75.44c1.67.58,2.51,1.61,2.51,3.1a2.9,2.9,0,0,1-1.35,2.48,5.94,5.94,0,0,1-3.51,1,6.11,6.11,0,0,1-2.55-.51,4.32,4.32,0,0,1-1.75-1.4,3.19,3.19,0,0,1-.63-1.87h3.24a1.36,1.36,0,0,0,.52,1.13,2.09,2.09,0,0,0,1.26.36,1.69,1.69,0,0,0,1.07-.29A.94.94,0,0,0,161.64,26.09Z"/><path class="cls-1" d="M23.46,45c2.19-8.16,19.76-13.25,22.8-25.47C51.11.1,27.76-6.9,23.46,8.1"/><path class="cls-2" d="M23.46,45C21.28,36.84,3.71,31.75.66,19.53-4.18.1,19.16-6.9,23.46,8.1"/></svg>