<?xml version="1.0" encoding="utf-8"?>
<!-- Generator: Adobe Illustrator 25.2.3, SVG Export Plug-In . SVG Version: 6.00 Build 0)  -->
<svg version="1.1" id="Layer_1" xmlns="http://www.w3.org/2000/svg" xmlns:xlink="http://www.w3.org/1999/xlink" x="0px" y="0px"
	 viewBox="0 0 165 48" style="enable-background:new 0 0 165 48;" xml:space="preserve">
<style type="text/css">
	.st0{fill:#FFFFFF;}
	.st1{fill:#39B54A;}
	.st2{fill:#009444;}
</style>
<g>
	<g>
		<path class="st0" d="M67.15,24.16h-5.54v3.49h6.54v2.71H58.09V15.75h10.08v2.72h-6.56v3.08h5.54L67.15,24.16L67.15,24.16z"/>
		<path class="st0" d="M73.92,27.95c0.47,0,0.84-0.13,1.1-0.39c0.26-0.26,0.39-0.62,0.38-1.08h3.17c0,1.19-0.43,2.17-1.28,2.93
			c-0.85,0.76-1.95,1.14-3.29,1.14c-1.58,0-2.82-0.49-3.73-1.49c-0.91-0.99-1.36-2.36-1.36-4.11v-0.14c0-1.1,0.2-2.06,0.61-2.9
			c0.4-0.84,0.99-1.49,1.75-1.94c0.76-0.45,1.67-0.68,2.71-0.68c1.41,0,2.53,0.39,3.36,1.17c0.83,0.78,1.24,1.84,1.24,3.18h-3.17
			c0-0.56-0.14-0.99-0.41-1.29c-0.27-0.3-0.64-0.45-1.1-0.45c-0.88,0-1.39,0.56-1.54,1.67c-0.05,0.35-0.07,0.84-0.07,1.47
			c0,1.09,0.13,1.85,0.39,2.27C72.94,27.74,73.35,27.95,73.92,27.95z"/>
		<path class="st0" d="M79.46,24.83c0-1.08,0.21-2.05,0.63-2.9c0.42-0.84,1.03-1.5,1.82-1.95c0.79-0.46,1.71-0.68,2.78-0.68
			c1.63,0,2.91,0.5,3.84,1.51c0.94,1.01,1.4,2.38,1.4,4.11v0.12c0,1.69-0.47,3.03-1.41,4.03c-0.94,0.99-2.21,1.49-3.82,1.49
			c-1.54,0-2.79-0.46-3.72-1.39c-0.94-0.93-1.44-2.18-1.52-3.77L79.46,24.83z M82.84,25.04c0,1,0.16,1.74,0.47,2.21
			c0.31,0.47,0.78,0.7,1.39,0.7c1.2,0,1.82-0.93,1.85-2.78v-0.34c0-1.95-0.62-2.92-1.86-2.92c-1.13,0-1.74,0.84-1.84,2.52
			L82.84,25.04z"/>
		<path class="st0" d="M96.18,15.75l3.26,10.16l3.25-10.16h4.64v14.61h-3.53v-3.41l0.34-6.98l-3.53,10.4h-2.33l-3.54-10.4l0.34,6.99
			v3.41h-3.52V15.75H96.18z"/>
		<path class="st0" d="M115.53,30.36c-0.12-0.22-0.23-0.55-0.32-0.97c-0.62,0.78-1.49,1.17-2.61,1.17c-1.02,0-1.89-0.31-2.61-0.93
			c-0.71-0.62-1.07-1.4-1.07-2.33c0-1.18,0.44-2.07,1.31-2.67c0.87-0.6,2.13-0.9,3.79-0.9h1.04v-0.57c0-1-0.43-1.5-1.29-1.5
			c-0.8,0-1.21,0.4-1.21,1.19h-3.38c0-1.05,0.45-1.9,1.34-2.56c0.89-0.65,2.03-0.98,3.42-0.98c1.39,0,2.48,0.34,3.28,1.01
			c0.8,0.68,1.21,1.6,1.23,2.78v4.81c0.01,1,0.17,1.76,0.46,2.29v0.17C118.91,30.36,115.53,30.36,115.53,30.36z M113.41,28.15
			c0.42,0,0.77-0.09,1.05-0.27c0.28-0.18,0.48-0.39,0.6-0.61v-1.74h-0.98c-1.18,0-1.76,0.53-1.76,1.59c0,0.31,0.1,0.56,0.31,0.75
			C112.83,28.06,113.09,28.15,113.41,28.15z"/>
		<path class="st0" d="M124.08,16.81v2.7h1.79v2.35h-1.79v4.97c0,0.41,0.07,0.69,0.22,0.85c0.15,0.16,0.44,0.24,0.87,0.24
			c0.33,0,0.62-0.02,0.84-0.06v2.42c-0.61,0.19-1.24,0.29-1.91,0.29c-1.16,0-2.02-0.27-2.58-0.82c-0.56-0.55-0.83-1.38-0.83-2.5
			v-5.39h-1.39V19.5h1.39v-2.7H124.08z"/>
		<path class="st0" d="M131.29,16.81v2.7h1.79v2.35h-1.79v4.97c0,0.41,0.07,0.69,0.22,0.85c0.15,0.16,0.44,0.24,0.87,0.24
			c0.33,0,0.62-0.02,0.84-0.06v2.42c-0.61,0.19-1.24,0.29-1.91,0.29c-1.16,0-2.02-0.27-2.58-0.82c-0.55-0.55-0.83-1.38-0.83-2.5
			v-5.39h-1.38V19.5h1.38v-2.7H131.29z"/>
		<path class="st0" d="M139.42,30.56c-1.67,0-3.01-0.5-4.04-1.49c-1.03-0.99-1.54-2.28-1.54-3.88v-0.28c0-1.11,0.21-2.09,0.62-2.94
			c0.41-0.85,1.01-1.51,1.8-1.97c0.79-0.47,1.73-0.7,2.81-0.7c1.52,0,2.73,0.47,3.61,1.42c0.88,0.95,1.32,2.27,1.32,3.96V26h-6.72
			c0.12,0.61,0.38,1.09,0.79,1.44c0.41,0.35,0.94,0.52,1.59,0.52c1.07,0,1.9-0.38,2.51-1.12l1.54,1.83
			c-0.42,0.58-1.02,1.05-1.79,1.39C141.14,30.39,140.31,30.56,139.42,30.56z M139.03,21.91c-0.99,0-1.58,0.66-1.76,1.97h3.41v-0.26
			c0.01-0.54-0.12-0.96-0.41-1.26C139.98,22.06,139.57,21.91,139.03,21.91z"/>
		<path class="st0" d="M151.89,22.57l-1.11-0.08c-1.06,0-1.75,0.33-2.05,1v6.87h-3.38V19.5h3.17l0.11,1.4
			c0.57-1.06,1.36-1.6,2.38-1.6c0.36,0,0.68,0.04,0.94,0.12L151.89,22.57z"/>
		<path class="st0" d="M158.72,27.31c0-0.29-0.15-0.52-0.45-0.69c-0.3-0.17-0.87-0.35-1.71-0.54c-0.84-0.19-1.54-0.43-2.09-0.74
			c-0.55-0.3-0.97-0.67-1.25-1.11c-0.29-0.43-0.43-0.93-0.43-1.49c0-1,0.41-1.82,1.23-2.46c0.82-0.65,1.9-0.97,3.23-0.97
			c1.43,0,2.58,0.33,3.45,0.97c0.87,0.65,1.3,1.5,1.3,2.56h-3.39c0-0.87-0.46-1.31-1.38-1.31c-0.36,0-0.65,0.1-0.9,0.3
			s-0.36,0.44-0.36,0.74c0,0.3,0.15,0.54,0.44,0.73c0.29,0.19,0.76,0.34,1.41,0.46c0.65,0.12,1.21,0.26,1.7,0.43
			c1.63,0.56,2.45,1.57,2.45,3.02c0,0.99-0.44,1.8-1.32,2.42c-0.88,0.62-2.02,0.93-3.42,0.93c-0.93,0-1.76-0.17-2.49-0.5
			c-0.73-0.33-1.3-0.79-1.71-1.36c-0.41-0.57-0.61-1.18-0.61-1.81h3.16c0.01,0.5,0.18,0.87,0.5,1.1c0.32,0.23,0.73,0.35,1.24,0.35
			c0.46,0,0.81-0.09,1.04-0.28C158.6,27.85,158.72,27.61,158.72,27.31z"/>
	</g>
	<g>
		<path class="st1" d="M24,45.74c2.13-7.96,19.26-12.92,22.23-24.83C50.96,1.97,28.2-4.86,24,9.77"/>
		<path class="st2" d="M24,45.74C21.88,37.79,4.74,32.82,1.77,20.91C-2.95,1.97,19.81-4.86,24,9.77"/>
	</g>
</g>
</svg>
