<?xml version="1.0" standalone="no"?>
<!DOCTYPE svg PUBLIC "-//W3C//DTD SVG 20010904//EN"
 "http://www.w3.org/TR/2001/REC-SVG-20010904/DTD/svg10.dtd">
<svg version="1.0" xmlns="http://www.w3.org/2000/svg"
 width="256.000000pt" height="256.000000pt" viewBox="0 0 256.000000 256.000000"
 preserveAspectRatio="xMidYMid meet">
<metadata>
Created by potrace 1.14, written by Peter Selinger 2001-2017
</metadata>
<g transform="translate(0.000000,256.000000) scale(0.100000,-0.100000)"
fill="#000000" stroke="none">
<path d="M593 2036 c-102 -46 -246 -178 -321 -294 -70 -108 -102 -199 -138
-389 -4 -21 -10 -23 -69 -23 l-65 0 0 -56 0 -57 61 7 c69 8 79 2 79 -50 0 -85
73 -271 150 -384 51 -74 181 -197 260 -243 60 -36 70 -38 131 -35 75 4 141 38
231 118 l50 45 -36 44 c-20 24 -40 50 -45 59 -7 12 -19 7 -69 -34 -80 -64
-125 -88 -154 -80 -39 10 -160 108 -211 171 -80 97 -157 277 -157 365 l0 32
68 -7 c37 -4 119 -16 182 -26 63 -10 136 -19 163 -19 42 0 47 -2 47 -23 0 -43
41 -173 80 -252 74 -150 224 -307 357 -374 93 -46 190 -20 318 86 l66 54 -47
59 c-30 39 -51 57 -58 52 -6 -5 -36 -29 -66 -53 -31 -25 -71 -51 -89 -59 -31
-12 -37 -12 -80 11 -64 33 -198 171 -244 249 -39 67 -87 203 -87 245 0 21 7
24 78 37 l77 14 3 -23 c4 -27 -32 -162 -54 -205 -14 -28 -14 -32 10 -71 14
-23 36 -55 49 -72 l24 -29 42 85 c42 89 81 219 81 275 0 18 3 39 6 48 6 17 47
21 102 10 28 -6 30 -9 37 -67 22 -198 145 -422 303 -552 145 -120 234 -142
342 -84 212 113 379 355 421 608 l12 72 64 -7 63 -6 0 50 c0 57 -6 62 -79 62
l-48 0 -13 76 c-16 103 -43 182 -98 289 -38 74 -64 107 -147 190 -55 55 -127
116 -160 135 -51 30 -68 35 -125 35 -58 0 -72 -4 -127 -38 -34 -21 -83 -57
-109 -81 l-47 -42 45 -55 45 -56 34 30 c65 55 134 97 160 97 39 0 161 -91 223
-166 30 -37 71 -97 91 -135 38 -74 75 -200 75 -260 l0 -37 -113 -21 c-84 -16
-143 -21 -228 -19 l-114 3 -6 80 c-22 276 -197 550 -431 675 -52 28 -67 32
-118 28 -67 -5 -142 -45 -223 -119 l-51 -46 44 -54 c25 -30 46 -56 47 -58 1
-2 24 16 51 41 66 59 131 93 163 85 40 -11 157 -106 209 -171 93 -114 160
-279 160 -394 0 -41 -2 -44 -22 -39 -13 3 -52 11 -87 18 l-63 12 6 55 c6 47
32 137 60 203 7 15 -67 139 -83 139 -10 0 -74 -139 -95 -205 -9 -27 -19 -75
-23 -105 l-8 -55 -70 -3 -70 -3 -17 89 c-34 175 -109 314 -243 448 -108 108
-190 157 -270 161 -37 2 -72 -2 -92 -11z m142 -163 c119 -79 203 -175 261
-298 35 -74 64 -171 64 -216 0 -26 -3 -27 -80 -39 -45 -7 -84 -10 -87 -6 -10
9 24 166 48 224 17 41 20 58 12 75 -16 32 -72 107 -81 107 -11 0 -60 -103 -89
-185 -13 -38 -29 -109 -35 -157 l-12 -88 -56 0 c-30 0 -91 7 -135 15 -44 9
-121 18 -171 22 l-91 6 9 55 c20 127 83 257 174 360 55 62 178 152 208 152 12
0 39 -12 61 -27z m855 -675 c67 -11 70 -13 70 -39 0 -15 -14 -66 -30 -113
l-31 -86 41 -61 c23 -33 47 -58 53 -56 27 9 117 232 117 290 0 22 2 22 138 23
89 0 168 6 226 18 48 9 91 14 94 11 13 -13 -20 -126 -64 -214 -39 -79 -62
-110 -133 -181 -47 -47 -107 -97 -133 -110 l-48 -25 -47 25 c-79 41 -212 182
-260 275 -52 101 -96 255 -73 255 5 0 41 -5 80 -12z"/>
</g>
</svg>
